<?xml version="1.0" encoding="utf-8"?>
<!-- Generator: Adobe Illustrator 27.3.1, SVG Export Plug-In . SVG Version: 6.00 Build 0)  -->
<svg version="1.1" xmlns="http://www.w3.org/2000/svg" xmlns:xlink="http://www.w3.org/1999/xlink" x="0px" y="0px"
	 viewBox="0 0 500 500" style="enable-background:new 0 0 500 500;" xml:space="preserve">
<style type="text/css">
	.st0{fill:#FFFFFF;}
	.st1{opacity:0.35;}
	.st2{fill:#8EB9F9;}
	.st3{opacity:0.15;}
	.st4{fill:#ECB84C;}
	.st5{fill:#3E62BF;}
	.st6{opacity:0.35;fill:#8EB9F9;}
	.st7{fill:#EFC5B1;}
	.st8{fill:#29386B;}
	.st9{fill:#628EDB;}
	.st10{fill:#DD4B4B;}
	.st11{fill:#AE6051;}
	.st12{fill:#C55C25;}
	.st13{fill:#DBA995;}
	.st14{fill:#C68069;}
	.st15{fill:#41332C;}
	.st16{fill:#BF2727;}
	.st17{fill:#EEBD94;}
	.st18{fill:#729AB8;}
	.st19{fill:#D7966B;}
	.st20{fill:#AA3F0F;}
</style>
<g id="BACKGROUND">
	<rect class="st0" width="500" height="500"/>
</g>
<g id="OBJECTS">
	<g>
		<g>
			<g>
				<g class="st1">
					<path class="st2" d="M185.88,250.09h27.05c12.82,0,23.21-10.39,23.21-23.21v-27.05L185.88,250.09z"/>
				</g>
				<g class="st1">
					<path class="st2" d="M52.16,101.29c-12.82,0-23.21,10.39-23.21,23.21v26.83l50.04-50.04H52.16z"/>
				</g>
				<g class="st1">
					<path class="st2" d="M165.3,101.29L30.75,235.85c2.34,5.57,6.79,10.04,12.35,12.41l146.96-146.96H165.3z"/>
				</g>
				<g class="st1">
					<path class="st2" d="M236.13,124.5c0-8.99-5.12-16.79-12.6-20.64L77.31,250.09h72.51l86.31-86.31V124.5z"/>
				</g>
				<g class="st3">
					<path class="st2" d="M78.98,101.29l-50.04,50.04v75.55c0,3.18,0.64,6.21,1.8,8.97L165.3,101.29H78.98z"/>
				</g>
				<g class="st3">
					<path class="st2" d="M212.92,101.29h-22.87L43.09,248.25c2.79,1.18,5.85,1.84,9.07,1.84h25.15l146.23-146.23
						C220.36,102.22,216.75,101.29,212.92,101.29z"/>
				</g>
				<g class="st3">
					<polygon class="st2" points="236.13,163.78 149.82,250.09 185.88,250.09 236.13,199.83 					"/>
				</g>
			</g>
		</g>
		<path class="st2" d="M212.92,105.95c2.98,0,5.83,0.69,8.48,2.05c6.21,3.2,10.07,9.52,10.07,16.5v39.28v36.05v27.05
			c0,10.23-8.32,18.55-18.55,18.55h-27.05h-36.05H77.31H52.16c-2.51,0-4.95-0.49-7.24-1.47c-4.42-1.88-8.02-5.49-9.87-9.92
			c-0.95-2.27-1.43-4.68-1.43-7.16v-75.55V124.5c0-10.23,8.32-18.55,18.55-18.55h26.83h86.31h24.75H212.92 M212.92,101.29h-22.87
			H165.3H78.98H52.16c-12.82,0-23.21,10.39-23.21,23.21v26.83v75.55c0,3.18,0.64,6.21,1.8,8.97c2.34,5.57,6.79,10.04,12.35,12.41
			c2.79,1.18,5.85,1.84,9.07,1.84h25.15h72.51h36.05h27.05c12.82,0,23.21-10.39,23.21-23.21v-27.05v-36.05V124.5
			c0-8.99-5.12-16.79-12.6-20.64C220.36,102.23,216.75,101.29,212.92,101.29L212.92,101.29z"/>
		<g>
			<g>
				<rect x="30.75" y="144.3" class="st2" width="202.61" height="4.66"/>
			</g>
		</g>
	</g>
	<g>
		<g>
			<g>
				<g class="st1">
					<path class="st2" d="M421.49,250.09h27.05c12.82,0,23.21-10.39,23.21-23.21v-27.05L421.49,250.09z"/>
				</g>
				<g class="st1">
					<path class="st2" d="M287.77,101.29c-12.82,0-23.21,10.39-23.21,23.21v26.83l50.04-50.04H287.77z"/>
				</g>
				<g class="st1">
					<path class="st2" d="M400.91,101.29L266.35,235.85c2.34,5.57,6.79,10.04,12.35,12.41l146.96-146.96H400.91z"/>
				</g>
				<g class="st1">
					<path class="st2" d="M471.74,124.5c0-8.99-5.12-16.79-12.6-20.64L312.92,250.09h72.51l86.31-86.31V124.5z"/>
				</g>
				<g class="st3">
					<path class="st2" d="M314.59,101.29l-50.04,50.04v75.55c0,3.18,0.64,6.21,1.8,8.97l134.55-134.55H314.59z"/>
				</g>
				<g class="st3">
					<path class="st2" d="M448.53,101.29h-22.87L278.7,248.25c2.79,1.18,5.85,1.84,9.07,1.84h25.15l146.23-146.23
						C455.96,102.22,452.36,101.29,448.53,101.29z"/>
				</g>
				<g class="st3">
					<polygon class="st2" points="471.74,163.78 385.43,250.09 421.49,250.09 471.74,199.83 					"/>
				</g>
			</g>
		</g>
		<path class="st2" d="M448.53,105.95c2.98,0,5.83,0.69,8.48,2.05c6.21,3.2,10.07,9.52,10.07,16.5v39.28v36.05v27.05
			c0,10.23-8.32,18.55-18.55,18.55h-27.05h-36.05h-72.51h-25.15c-2.51,0-4.95-0.49-7.24-1.47c-4.42-1.88-8.02-5.49-9.87-9.92
			c-0.95-2.27-1.43-4.68-1.43-7.16v-75.55V124.5c0-10.23,8.32-18.55,18.55-18.55h26.83h86.31h24.75H448.53 M448.53,101.29h-22.87
			h-24.75h-86.31h-26.83c-12.82,0-23.21,10.39-23.21,23.21v26.83v75.55c0,3.18,0.64,6.21,1.8,8.97c2.34,5.57,6.79,10.04,12.35,12.41
			c2.78,1.18,5.85,1.84,9.07,1.84h25.15h72.51h36.05h27.05c12.82,0,23.21-10.39,23.21-23.21v-27.05v-36.05V124.5
			c0-8.99-5.12-16.79-12.6-20.64C455.96,102.23,452.36,101.29,448.53,101.29L448.53,101.29z"/>
		<g>
			<g>
				<rect x="266.35" y="144.3" class="st2" width="202.61" height="4.66"/>
			</g>
		</g>
	</g>
	<g>
		<path class="st2" d="M470.18,87.3H32.09c-1.3,0-2.36-1.06-2.36-2.36l0,0c0-1.3,1.06-2.36,2.36-2.36h438.09
			c1.3,0,2.36,1.06,2.36,2.36l0,0C472.54,86.25,471.48,87.3,470.18,87.3z"/>
		<g>
			<g>
				<path class="st2" d="M452.58,88.68h-34.87c-1.18,0-2.14-0.96-2.14-2.14v-3.19c0-1.18,0.96-2.14,2.14-2.14h34.87
					c1.18,0,2.14,0.96,2.14,2.14v3.19C454.71,87.72,453.76,88.68,452.58,88.68z"/>
				<path class="st2" d="M84.56,88.68H49.7c-1.18,0-2.14-0.96-2.14-2.14v-3.19c0-1.18,0.96-2.14,2.14-2.14h34.87
					c1.18,0,2.14,0.96,2.14,2.14v3.19C86.7,87.72,85.74,88.68,84.56,88.68z"/>
			</g>
		</g>
		<g>
			<path class="st4" d="M116.38,104.35l1.26-23.63c0.03-0.56,0.51-0.99,1.06-0.96l2.12,0.11c0.56,0.03,0.99,0.51,0.96,1.06
				l-1.26,23.63c-0.03,0.56-0.51,0.99-1.06,0.96l-2.12-0.11C116.78,105.38,116.35,104.91,116.38,104.35z"/>
			<g>
				<path class="st4" d="M105.04,126.12c-0.91-0.2-1.67-0.81-2.06-1.68c-0.44-0.99-0.32-2.1,0.32-2.96l12.65-17.1
					c0.61-0.83,1.6-1.27,2.63-1.19c1.03,0.09,1.92,0.69,2.39,1.61l9.66,19.15c0.48,0.96,0.41,2.11-0.2,2.99
					c-0.6,0.89-1.64,1.38-2.71,1.28l-22.31-2.05C105.28,126.16,105.16,126.14,105.04,126.12z M105.53,123.12
					c-0.02,0.02-0.06,0.09-0.02,0.19c0.04,0.1,0.12,0.11,0.15,0.11l22.31,2.05c0.03,0,0.11,0.01,0.17-0.08
					c0.06-0.09,0.03-0.16,0.01-0.19l-9.66-19.15c-0.01-0.02-0.05-0.1-0.15-0.1c-0.1-0.01-0.15,0.05-0.17,0.08L105.53,123.12z"/>
			</g>
			<g>
				<g>
					<path class="st5" d="M107.42,126.37l0.26-2.77c0.05-0.57,0.55-0.98,1.12-0.93l16.44,1.51c0.57,0.05,0.98,0.55,0.93,1.12
						l-0.25,2.77c-0.05,0.57-0.55,0.98-1.12,0.93l-16.44-1.51C107.78,127.44,107.37,126.93,107.42,126.37z"/>
				</g>
			</g>
		</g>
		<g>
			<path class="st4" d="M366.72,104.14l-4.39-23.25c-0.1-0.55,0.26-1.08,0.81-1.18l2.09-0.39c0.55-0.1,1.08,0.26,1.18,0.81
				l4.4,23.25c0.1,0.55-0.26,1.08-0.81,1.18l-2.09,0.39C367.35,105.05,366.82,104.69,366.72,104.14z"/>
			<g>
				<path class="st4" d="M360.87,127.98c-0.93,0.02-1.81-0.39-2.4-1.14c-0.66-0.85-0.81-1.96-0.39-2.96l8.23-19.62
					c0.4-0.95,1.25-1.62,2.27-1.78c1.02-0.16,2.03,0.21,2.7,1l13.93,16.31c0.7,0.82,0.9,1.95,0.52,2.95
					c-0.38,1.01-1.27,1.73-2.33,1.89l-22.16,3.31C361.12,127.97,361,127.98,360.87,127.98z M360.64,124.96
					c-0.01,0.03-0.04,0.1,0.02,0.19c0.07,0.09,0.15,0.07,0.18,0.07L383,121.9c0.03,0,0.11-0.02,0.15-0.12
					c0.04-0.1-0.01-0.16-0.03-0.19l-13.93-16.31c-0.02-0.02-0.07-0.08-0.17-0.06c-0.1,0.02-0.13,0.09-0.14,0.11L360.64,124.96z"/>
			</g>
			<g>
				<g>
					<path class="st5" d="M363.24,127.66l-0.41-2.75c-0.08-0.56,0.3-1.08,0.87-1.17l16.33-2.44c0.56-0.08,1.09,0.3,1.17,0.87
						l0.41,2.75c0.08,0.56-0.3,1.09-0.87,1.17l-16.33,2.44C363.85,128.61,363.33,128.22,363.24,127.66z"/>
				</g>
			</g>
		</g>
	</g>
	<g>
		<path class="st6" d="M299.1,343.4H39.95c-5.98,0-10.83-4.85-10.83-10.83v-57.68c0-5.98,4.85-10.83,10.83-10.83H299.1
			c5.98,0,10.83,4.85,10.83,10.83v57.68C309.93,338.55,305.08,343.4,299.1,343.4z"/>
		<path class="st2" d="M309.4,349.84H29.65c-2.25,0-4.08-1.83-4.08-4.08v-14.9c0-2.25,1.83-4.08,4.08-4.08H309.4
			c2.25,0,4.08,1.83,4.08,4.08v14.9C313.47,348.01,311.65,349.84,309.4,349.84z"/>
	</g>
	<ellipse class="st6" cx="132.54" cy="415.76" rx="73.74" ry="4.94"/>
	<ellipse class="st6" cx="367.67" cy="415.76" rx="107.23" ry="4.94"/>
	<g>
		<g>
			<path class="st4" d="M166.85,105.54l-3.77-23.36c-0.09-0.55,0.29-1.07,0.84-1.16l2.1-0.34c0.55-0.09,1.07,0.29,1.16,0.84
				l3.77,23.36c0.09,0.55-0.29,1.07-0.84,1.16l-2.1,0.34C167.46,106.47,166.94,106.09,166.85,105.54z"/>
		</g>
		<g>
			<path class="st7" d="M162.86,130.35l2.98,3.14c0.42,0.45,1.96,1.48,3.13,1.94l0.5,0.56c1.83,1.79,2.09,0.06,1.92-1.81
				c0.14-0.14,0.16-0.31-0.06-0.55c-0.2-1.44-0.59-2.78-0.67-2.45c-0.28,1.15-2.04-0.65-4.04-2.36c-0.66-0.56-1.21-0.89-1.69-1.07
				c-0.63-0.36-1.45-0.3-2,0.22C162.25,128.61,162.23,129.68,162.86,130.35z"/>
			<path id="XMLID_364_" class="st7" d="M177.96,126.07l-1.55,12.78l-9.22,4.58c0,0-0.2-8.58-0.66-10.65
				c-0.46-2.07,1.57-4.19,1.41-7.74C167.77,121.5,177.96,126.07,177.96,126.07z"/>
			<path id="XMLID_285_" class="st8" d="M133.4,171.16c-1.34,0.07-2.57,0.31-3.82,0.72c-0.52,0.18-1.08-0.14-1.21-0.68l0,0
				c-0.11-0.45,0.12-0.92,0.55-1.1c1.44-0.57,2.92-0.86,4.45-0.84c0.46,0,0.85,0.37,0.9,0.83l0,0
				C134.34,170.64,133.94,171.13,133.4,171.16z"/>
			<path id="XMLID_282_" class="st8" d="M120.62,174.22c-1.48,0.15-2.84,0.48-4.2,1.02c-0.51,0.2-1.09-0.09-1.24-0.62l-0.04-0.12
				c-0.13-0.44,0.07-0.93,0.49-1.12c1.55-0.71,3.16-1.11,4.83-1.17c0.46-0.02,0.87,0.33,0.95,0.79l0.02,0.12
				C121.53,173.65,121.16,174.17,120.62,174.22z"/>
			<g>
				<path class="st4" d="M160.37,129.22c-0.93,0-1.8-0.43-2.37-1.2c-0.64-0.87-0.76-1.98-0.31-2.97l8.75-19.39
					c0.43-0.94,1.29-1.58,2.31-1.72c1.03-0.13,2.02,0.27,2.67,1.07l13.5,16.67c0.68,0.84,0.84,1.97,0.44,2.97
					c-0.4,1-1.31,1.69-2.38,1.82l-22.24,2.72C160.62,129.21,160.49,129.22,160.37,129.22z M160.21,126.18
					c-0.01,0.03-0.04,0.1,0.02,0.19c0.07,0.09,0.14,0.08,0.17,0.07l22.24-2.72c0.03,0,0.11-0.01,0.15-0.12
					c0.04-0.1-0.01-0.17-0.03-0.19l-13.5-16.67c-0.02-0.02-0.07-0.08-0.17-0.07c-0.1,0.01-0.14,0.09-0.15,0.11L160.21,126.18z"/>
			</g>
			<g>
				<g>
					<path class="st5" d="M162.75,128.96l-0.34-2.76c-0.07-0.56,0.33-1.08,0.9-1.15l16.39-2c0.56-0.07,1.08,0.33,1.15,0.9l0.34,2.76
						c0.07,0.56-0.33,1.08-0.9,1.15l-16.39,2C163.33,129.92,162.82,129.52,162.75,128.96z"/>
				</g>
			</g>
			<g>
				<g>
					<path class="st8" d="M143.44,200c0,0,4.1-10.73-14.07-8.82c-18.17,1.9-35.43,8.59-39.36,12.34c-3.93,3.75,1.52,28.5,1.91,46.96
						c0.39,18.47-6.11,30.75,15.74,29.8c21.85-0.95,34.53-0.93,36.57-13.65C146.25,253.9,143.44,200,143.44,200z"/>
					<g id="XMLID_326_">
						<g>
							<g>
								<path class="st9" d="M140.98,345.91c2.33-19.12,3.03-34.48,3.14-44.24c-1.16-0.48-2.38-1.15-3.23-2.1
									c-2.12-2.35-1.82-10.11-1.82-10.11l1.45-2.35l-9.3-2.74l-0.78,4.36l-6.24,0.5c0.01,3.43,0.01,7.37,0.01,11.68l-4.81,2.45
									v6.34l5.8,1.45c0,0-0.24,13.77-1.24,21.6c-0.4,3.17-1.28,7.29-2.18,11.08c0.56,4.46,0.99,7.5,0.99,7.5
									s-1.07,10.07-1.07,18.37s1.07,32.21,1.07,32.21v2.29l10.05,0.73l0.66-0.11h1.1c0.15-1.25,0.11-3.98,0.28-5.43
									c3.73-20.85,6.14-49.39,6.14-49.39C142.72,347.55,140.98,345.91,140.98,345.91z"/>
								<path class="st5" d="M125.18,311.17l-5.8-1.45v8.44c0.27,7.73,1.49,18.53,2.38,25.68c0.9-3.79,1.78-7.91,2.18-11.08
									C124.94,324.94,125.18,311.17,125.18,311.17z"/>
							</g>
							<path class="st5" d="M140.9,299.57c0.85,0.95,2.07,1.62,3.23,2.1c0.04-3.22,0.01-5.83-0.04-7.77
								c0.03-2.25,0.03-4.36-0.01-6.27l-1.4,0.11l-2.16-0.63l-1.45,2.35C139.07,289.47,138.78,297.22,140.9,299.57z"/>
						</g>
						<g>
							<path class="st9" d="M127.61,292.26c0.37-1.72,0.52-2.67,0.37-2.67l-0.85-0.02l-1.49-8.46l-14.6,2.76l4.94,2l-5.71,4.83
								c0,0-0.59,6.3-3.3,10.54c-1.45,2.27-5.44,2.61-8.83,2.44c-0.02,0.17-0.05,0.34-0.06,0.51c-0.71,8.48-3.15,42.99-3.15,42.99
								c0,0,0,0,0,0c0,0-2.59,10.72-3.92,21.32c-1.32,10.59-3.23,36.86-3.23,36.86l11.14,0c0,0,4.78-18.23,8.51-30.15
								c3.73-11.92,5.18-26.69,5.18-26.69c7.73-20.32,11.6-31.67,11.6-31.67l5.12-14.66L127.61,292.26z"/>
							<path class="st5" d="M106.99,301.22c2.71-4.24,3.3-10.54,3.3-10.54l5.71-4.83l-4.94-2l-6.77,1.28c0,0-0.75,1.46-1.74,3.72
								l-0.37-0.01c0,0.16-0.03,0.54-0.09,1.1c-1.55,3.71-3.42,8.99-3.92,13.72C101.55,303.84,105.54,303.49,106.99,301.22z"/>
						</g>
						<g>
							<path class="st10" d="M99.54,406.74v-1.1c-0.08-2.04-1.79-3.64-3.84-3.59l-4.64,0.13c-1.81,0.05-3.32,1.38-3.59,3.17
								c-0.04,0.24-0.07,1.27-0.11,2.33C87.35,407.68,92.36,402.92,99.54,406.74z"/>
							<path class="st8" d="M85.49,413.13h16.86c0,0,0.07-3.98-2.81-6.39c-7.18-3.82-12.18,0.95-12.18,0.95
								C85.43,410.06,85.49,413.13,85.49,413.13z"/>
						</g>
						<g>
							<path class="st10" d="M138.23,407.24l-1.73-2.15c-1.14-1.41-2.99-1.99-4.76-1.55c-2.48,0.62-5.15,0.51-8.18-0.93
								c-0.58,0-1.05,0.47-1.05,1.05l0,2.35l0.02,0l0.13,7.33l20.03,0.07c0.7-3.61,1.94-5.16,1.94-5.16L138.23,407.24z"/>
							<path class="st8" d="M144.65,408.27c0,0-1.25,1.55-1.94,5.16l9.74,0.04C152.97,408.63,148.97,408.27,144.65,408.27z"/>
						</g>
						<polygon id="XMLID_334_" class="st8" points="152.52,415.65 122.69,415.65 122.65,413.02 152.49,413.02 						"/>
						<polygon id="XMLID_330_" class="st8" points="102.33,415.76 85.47,415.76 85.49,413.13 102.34,413.13 						"/>
					</g>
					<g>
						<path id="XMLID_311_" class="st4" d="M91.52,217.75c-2.59,5.01-10.67,23.52-13.19,36.34l20.88-2.13
							c2.63-7.91,5.39-23.15,8.88-31.46L91.52,217.75z"/>
					</g>
					<g>
						<path class="st4" d="M157.2,163.86L157.2,163.86c-6.29,20.87-17.72,38.45-25.69,40l-16.41,18.02l-1.73,21.19
							c0,0,30.58,66.04,32.39,25.06c1.01-22.9,6.59-45.66,12.26-64.59l-13,2.35C145.47,201.7,151.71,181.72,157.2,163.86z"/>
						<path class="st11" d="M169.36,167.88c-0.18,0.61-0.36,1.21-0.54,1.82C169.01,169.07,169.19,168.46,169.36,167.88z"/>
						<path class="st4" d="M169.41,167.7c-0.02,0.06-0.04,0.12-0.05,0.18c3.1-10.51,6.19-20.73,7.78-26.84l-12.78-1.15
							c-1.53,5.6-4.24,14.49-7.16,23.98C157.2,163.86,174.83,148.77,169.41,167.7z"/>
						<path class="st4" d="M169.36,167.88c0.02-0.06,0.04-0.12,0.05-0.18c5.42-18.93-12.21-3.84-12.21-3.84
							c-5.5,17.86-11.73,37.84-12.19,42.03l13-2.35c4.13-13.79,8.31-25.55,10.81-33.85C169,169.09,169.18,168.48,169.36,167.88z"/>
					</g>
					<g>
						<path class="st12" d="M130.47,288.85c-12.21,2.04-23.74-1.47-29.01-3.48l0.27,3.59c0.05,0.65,0.49,1.2,1.11,1.39
							c5.47,1.67,31.32,8.77,41.84-2.81c0.25-0.28,0.39-0.64,0.4-1.01c0.05-2.06,0.11-4.2,0.19-6.38
							C142.21,283.99,137.54,287.67,130.47,288.85z"/>
						<path class="st4" d="M146.06,238.1l-3.88-14.64L102,225.59l-3.54,14.34l1.86,30.19l1.14,15.26c5.27,2.01,16.8,5.52,29.01,3.48
							c7.07-1.18,11.74-4.86,14.79-8.7C145.83,263.41,147,249.89,146.06,238.1z"/>
					</g>
					<g>
						<path class="st4" d="M131.51,203.86c0.23,3.45-0.65,8.46-7.68,8.66c-10.77,0.29-11.5-7.93-11.5-7.93l0,0
							c-9.43,5.17-21.95,8.52-21.78,17.25c0,0,0.33,7.22,5.32,7.12l25.24-0.49l10.44-0.49c14.3,0,14.3-7.86,14.3-7.86
							C145.67,211.87,140.62,208.52,131.51,203.86z"/>
						<path class="st12" d="M123.83,212.52c7.03-0.19,7.92-5.2,7.68-8.66c-2.03-1.04-3.99-2.12-5.74-3.29
							c-1.58-1.06-4.73-2.32-5.26-2.06c-0.54-0.24-2.57,2.41-4.1,3.53c-1.25,0.91-2.63,1.75-4.08,2.54l0,0
							C112.33,204.59,113.05,212.81,123.83,212.52z"/>
					</g>
					<path id="XMLID_307_" class="st13" d="M115.57,204.18c0.46,4.68,13.26,7.91,12.91,0.37l-1.31-15.05l-12.07-0.64
						C116.13,195.37,116.44,200.89,115.57,204.18z"/>
					<path id="XMLID_298_" class="st13" d="M129.21,198.96c0,0,1.68-14.02,0.28-18.02l-2.45-16.49c-1.4-4-4.78-7.49-8.6-6.84
						l-9.36,1.6c-3.82,0.65-6.56,5.46-5.16,9.46L113,191.9C114.4,195.9,119.39,200.54,129.21,198.96z"/>
					<path id="XMLID_297_" class="st7" d="M129.34,198.95l0.25-0.02c5.51-0.94,8.35-7.06,7.41-12.57l-2.65-25.04
						c-0.24-1.41-1.59-2.37-3-2.12l-18.69,3.19c-1.41,0.24-4.09,1.9-3.85,3.31l5.05,21.47
						C115.16,194.74,121.75,200.24,129.34,198.95z"/>
					<path id="XMLID_294_" class="st8" d="M133.96,175.32c0.33,1.42-0.12,2.73-1.01,2.94c-0.89,0.21-1.87-0.77-2.2-2.19
						c-0.33-1.42,0.12-2.73,1.01-2.94C132.64,172.92,133.62,173.9,133.96,175.32z"/>
					<path id="XMLID_291_" class="st8" d="M121.26,178.03c0.4,1.4,0.02,2.74-0.86,2.99c-0.88,0.25-1.91-0.68-2.31-2.08
						s-0.02-2.74,0.86-2.99C119.82,175.7,120.86,176.63,121.26,178.03z"/>
					<path id="XMLID_281_" class="st13" d="M131.3,182.62c0,0-0.09,2.42-1.89,2.71s-3.03-1.28-3.03-1.28s1.82,0.43,2.89,0.12
						C130.34,183.86,131.3,182.62,131.3,182.62z"/>
					<path id="XMLID_278_" class="st13" d="M106.51,187.46c1.73,2.42,4.37,3.49,5.91,2.39c0.15-0.11,0.29-0.23,0.41-0.37
						c1.09-1.28,0.81-3.82-0.75-6c-1.73-2.42-4.37-3.49-5.91-2.39C104.63,182.19,104.78,185.04,106.51,187.46z"/>
					<g>
						<path class="st7" d="M117.56,181.71c0,0,0.29-1.35,2.51-2.06c2.22-0.71,4.46,0.72,4.46,0.72l-2.99,2.06L117.56,181.71z"/>
						<path class="st7" d="M128.97,178.96c0,0,0.29-1.35,2.51-2.06c2.22-0.71,4.46,0.72,4.46,0.72l-2.99,2.06L128.97,178.96z"/>
					</g>
					<path class="st8" d="M112.38,167.86c0,0,8.56,0.17,15.09-1.22c6.52-1.4,7.98-2.91,7.98-2.91s0.92-9.17-0.83-15.17
						c0,0-6.84,1.82-14.94,3.16c-8.1,1.34-15.37,1.41-17.85,7.27c-2.49,5.86,3.11,18.57,6.45,24.06l2.25-0.6
						C110.52,182.44,111.62,178.91,112.38,167.86z"/>
					<path class="st0" d="M124.53,190.28c0,0,4.47-0.08,6.16-0.78c1.69-0.7,2.97-1.49,2.97-1.49s-1.19,3.52-3.28,4.22
						C128.29,192.94,124.53,190.28,124.53,190.28z"/>
					<path class="st7" d="M80.38,252.96c-4.86,21.47,20.39,50.72,20.39,50.72s3.69,0.43,5.31-1.04c1.62-1.47,2.05-3.55,2.05-3.55
						s-5.96-8.51-8.52-15.84c-2.56-7.33-7.5-18.28-7.5-18.28s4.33-8.21,7.15-21.63C99.25,243.33,84.82,233.36,80.38,252.96z"/>
					<path class="st4" d="M78.66,252.53c-1.83,7.84,0,14.49,0,14.49s4.75,2.41,9.15,1.06c4.41-1.35,6.47-3.06,6.47-3.06
						s2.32-4.71,4.93-13.07c2.61-8.36,1.31-15.6,1.31-15.6s-12.13,0.59-12.3,0.71c-0.18,0.12-6.36,7-6.36,7L78.66,252.53z"/>
					<path class="st12" d="M77.92,262.02c0,0-1.09,2.56,0.41,6.47c0,0,3.8,2.06,8.62,1.12c4.83-0.94,8.12-3.67,8.12-3.67
						s1.11-1.7,1.05-5.22C96.13,260.72,85.69,266.68,77.92,262.02z"/>
					<path class="st5" d="M109.82,205.89c0,0,13.5,11.28-9.49,64.22c0,0-1.66-2.79-0.53-8.56c0,0,9.78-28.03,2.1-51.86
						C101.9,209.69,104.28,206.33,109.82,205.89z"/>
					<path class="st5" d="M133.14,203.35c0,0,1.51-2.96,6.25-4.87c0,0,2.24,33.24,7.26,57.99c0,0,0.91,2.89-0.59,6.12
						C146.06,262.58,129.92,226.47,133.14,203.35z"/>
					<path class="st5" d="M107.71,184.66L107.71,184.66c-0.31,0.39-0.25,0.97,0.14,1.28l1.37,1.13c0.41,0.34,1.03,0.26,1.34-0.18
						l0.12-0.17c0.31-0.43,0.19-1.03-0.25-1.31l-1.49-0.96C108.54,184.2,108.01,184.29,107.71,184.66z"/>
				</g>
				<path class="st12" d="M176.56,143.22c0,0,2.33-2.08,1.32-5.04c0,0-6.34-3.44-12.72-1.9c0,0-2.25,2.09-1.11,4.71L176.56,143.22z"
					/>
			</g>
			<path class="st7" d="M166.75,121.93l8.62-1.09c1.1-0.14,2.07,0.73,2.04,1.84l-0.05,2.38c-0.02,0.9-0.71,1.66-1.6,1.76l-7.86,0.91
				c-0.86,0.1-1.68-0.43-1.94-1.25l-0.7-2.2C164.9,123.2,165.62,122.07,166.75,121.93z"/>
		</g>
	</g>
	<g>
		<g>
			<polygon class="st14" points="308.16,406.47 301.67,408.23 300.24,410.46 304.2,411.62 308.46,410.78 308.98,408.96 			"/>
			<polygon class="st14" points="267.24,406.47 260.74,408.23 259.31,410.46 263.28,411.62 267.54,410.78 268.06,408.96 			"/>
			<g>
				<path class="st14" d="M310.03,407.39l0.01,0c0,0-0.48-32.63-1.06-42.43c-0.58-9.8-3.17-13.6-3.17-13.6s-0.56-31.05-1.77-48.24
					c-0.36-5.09-2.59-7.88-5.55-9.29l-1.8-14.51l-16.85-5.53l-1.32-0.43l1.01,5.52l2.8,15.33c-1.23,0.38-1.98,0.68-1.98,0.68
					s-0.42,22.63,12.71,58.19c0,0,3.18,25.85,10.1,54.74l0.6-0.04l0.12,0.59l6.24,0.41L310.03,407.39z"/>
				<path class="st14" d="M269.05,409.15l0.01,0c0,0,5.53-32.16,6.75-41.91s-0.62-13.95-0.62-13.95s5.16-30.63,7.12-47.74
					c0.58-5.07-1.1-8.22-3.75-10.15l0.9-14.59l-15.54-8.53l-1.22-0.67l-0.02,5.61l-0.07,15.59c-1.28,0.15-2.07,0.31-2.07,0.31
					s-4.57,22.17,1.81,59.54c0,0-1.62,25.99-0.12,55.67l0.6,0.07l0.01,0.6l6.06,1.55L269.05,409.15z"/>
				<path class="st8" d="M303.62,280.37c-3.33-15.37-10.22-19.81-10.22-19.81l-0.28-2.94l-26.85,1.6c0,0-5.22,9.98-6.76,22.51
					c-1.54,12.52-3.18,32.49-3.18,32.49s1.47,0.24,2.72,0.59c3.08,0.88,9.71,2.48,18.72,3.13c7.86,0.56,16.65-0.86,22.18-2.01
					c3.38-0.71,5.54-1.32,5.54-1.32S306.95,295.74,303.62,280.37z"/>
			</g>
			<path class="st5" d="M311.08,415.04h-24.43c0,0,0.06-2.09,0.91-3.22c0.85-1.13,12.27-3.24,14.1-3.59c0,0,0.33,1.2,2.18,1.53
				c1.85,0.33,5.78-2.15,5.78-2.15l0.42-0.22L311.08,415.04"/>
			<path class="st5" d="M270.07,415.04h-25.25c0,0,0.06-2.09,0.91-3.22c0.85-1.13,13.19-3.24,15.02-3.59c0,0,0.33,1.2,2.18,1.53
				c1.85,0.33,5.78-2.15,5.78-2.15l0.61-0.22L270.07,415.04"/>
		</g>
		<path class="st8" d="M295.78,172.13c0,0,13.09,4.9,14.4,23.8c1.31,18.91,6.58,24.57,6.58,24.57s-7.8,0.25-17.01-3.54
			c-12.53-5.15-12.81-25.98-8.2-44.47L295.78,172.13z"/>
		<path class="st14" d="M292.1,208.36c-1.15-0.87-4.37-1.85-4.8-1.71c-0.4-0.21-3.75,0.15-5.04,0.78c-3.83,1.9-7.61,3.03-10.56,4.5
			c0.63,1.91,1.02,4,1.5,5.7c0.85,2.97,1.43,5.89,1.93,8.86l10.2,0.92l19.76,1.86c3.9,0.37,4.52-4.62,4.52-4.62
			C310.27,217.66,299.09,213.65,292.1,208.36z"/>
		<path id="XMLID_175_" class="st11" d="M282.47,202.17c0,0-4.21-13.06-3.61-17.13l-0.73-16.17c0.59-4.07,3.17-8.03,6.93-8.12
			l9.22-0.21c3.76-0.09,7.27,3.99,6.67,8.07l-5.21,23.79C295.15,196.47,292.13,201.86,282.47,202.17z"/>
		<path id="XMLID_174_" class="st14" d="M282.34,202.19l-0.25,0.03c-5.43,0.13-9.79-4.39-9.92-9.82l-1.46-18.89
			c-0.11-4.84,3.76-8.89,8.6-9l12.14-0.28c1.39-0.03,4.25,1.05,4.28,2.44l-1.53,21.44C294.39,195.58,289.82,202.02,282.34,202.19z"
			/>
		<path id="XMLID_171_" class="st8" d="M273.83,181.94c-0.05,1.41,0.62,2.58,1.51,2.62c0.88,0.03,1.64-1.09,1.7-2.5
			c0.05-1.41-0.62-2.58-1.51-2.62C274.64,179.4,273.89,180.52,273.83,181.94z"/>
		<path id="XMLID_168_" class="st8" d="M286.44,182.17c-0.12,1.41,0.49,2.61,1.37,2.69c0.88,0.08,1.7-1,1.82-2.41
			c0.12-1.41-0.49-2.61-1.37-2.69C287.38,179.68,286.56,180.76,286.44,182.17z"/>
		<path id="XMLID_161_" class="st11" d="M277.44,186.98c0,0,0.53,2.29,2.31,2.24c1.77-0.05,2.65-1.78,2.65-1.78
			s-1.61,0.67-2.69,0.57C278.63,187.91,277.44,186.98,277.44,186.98z"/>
		<path id="XMLID_146_" class="st8" d="M284.36,165.68c0,0,3.44,5.54,8.32,11.63c4.65,5.8,3.97,10.18,4.12,14.67
			c0,0,17.44-32.4-8.01-32.7L284.36,165.68z"/>
		<path id="XMLID_143_" class="st11" d="M301.98,187c-1.2,2.63-3.52,4.14-5.2,3.37c-0.16-0.08-0.32-0.17-0.46-0.28
			c-1.28-1.02-1.48-3.49-0.4-5.86c1.2-2.63,3.52-4.14,5.2-3.37C302.79,181.62,303.18,184.37,301.98,187z"/>
		<path id="XMLID_139_" class="st15" d="M285.17,164.88"/>
		<path id="XMLID_138_" class="st8" d="M286.47,166.63c0,0-13.95,9.03-17.51,16.39c0,0-6.18-29.26,19.83-23.74L286.47,166.63z"/>
		<path class="st8" d="M289.36,167.07c0,0-6.42,4.26-11.25,11.41c0,0,0.7-9.3,2.93-14.66c2.23-5.36,7.3-1.83,7.3-1.83L289.36,167.07
			z"/>
		<g>
			<path class="st14" d="M291.03,184.72c0,0-0.59-1.29-2.98-1.5c-2.39-0.21-4.32,1.72-4.32,1.72l3.46,1.4L291.03,184.72z"/>
			<path class="st14" d="M278.97,184.5c0,0-0.59-1.29-2.98-1.5c-2.39-0.21-4.32,1.72-4.32,1.72l3.46,1.4L278.97,184.5z"/>
		</g>
		<g>
			<g>
				<g>
					<polygon class="st8" points="288.46,180.07 290.42,179.88 289.23,181.13 					"/>
				</g>
				<g>
					<polygon class="st8" points="275.24,179.63 273.27,179.64 274.59,180.75 					"/>
				</g>
			</g>
		</g>
		<polygon class="st8" points="288.3,179.99 289.26,179.24 289.16,180.36 290.42,180.84 289.4,181.6 		"/>
		<polygon class="st8" points="275.22,179.71 274.26,178.96 274.36,180.08 273.11,180.57 274.29,181.07 		"/>
		<g>
			<path class="st11" d="M280.1,195.25c-1.11,0-1.98-0.12-2.04-0.12l0.12-0.92c0.02,0,1.92,0.25,3.6,0
				c1.57-0.24,2.58-1.32,2.59-1.33l0.69,0.63c-0.05,0.05-1.24,1.34-3.15,1.63C281.31,195.22,280.67,195.25,280.1,195.25z"/>
		</g>
		<g>
			<path class="st11" d="M285.81,194.41c-1.77-0.74-2.05-2.41-2.06-2.48l0.92-0.15c0.01,0.05,0.23,1.24,1.5,1.77L285.81,194.41z"/>
		</g>
		<g>
			<path class="st14" d="M310.57,238.98c-0.47-0.09-0.93-0.27-1.36-0.49c-2.11,0.51-5.63-1.77-7.64-1.37
				c0.33,5.33,0.98,14.39,1.59,19.82c0,0-0.96,9.38-0.57,15.61c0.39,6.22,1.53,17,1.53,17l4.52,11.38c0,0,2.33-30.35,3.34-44.69
				c0,0,0.35-9.65,0.88-18.19C312.29,238.11,311.15,239.08,310.57,238.98z"/>
			<g>
				<g>
					<g>
						<path class="st14" d="M263.47,218.18c0.14,0.42,0.27,0.82,0.4,1.24c3.86-3.35,7.51-6.85,10.39-11.12
							c-5.89-4.08-8.15-16.69-12.7-25.33c0,0-2.85-10.27-5.83-16.66c-2.98-6.39-7.65-19-7.65-19l-5.8-2.13
							c0,0,6.4,26.65,11.26,42.16C253.53,187.34,259.79,207.37,263.47,218.18z"/>
						<path class="st16" d="M271.31,216.48c0,0-1.41,4.17-7.53,7.72c0.41,2.08,0.8,4.24,1.13,6.45c0,0,1.82-0.3,3.9-1.69l2.43-10.15
							L271.31,216.48z"/>
						<path class="st10" d="M276.2,208.92c-3.08-1.52-9.02-14.25-9.02-14.25s-4.73,0.56-9.98,6.05c0,0,3.91,10.13,6.56,23.48
							c6.12-3.55,7.53-7.72,7.53-7.72l-0.08,2.33l-2.43,10.15c2.06-1.38,4.38-3.84,5.44-8.15
							C276.36,212.14,276.2,208.92,276.2,208.92z"/>
					</g>
					<path class="st14" d="M248.14,147.53c-1.05-2.6-0.53-3.64-0.53-3.64s2.22-0.75,2.77-1.3c0.55-0.55,1.06-2.63,1.06-2.63
						l-11.65-0.22c0,0,0,1.66,0.31,3.11c0.31,1.46,2.31,3.41,2.31,3.41l4.22,3.3L248.14,147.53z"/>
				</g>
				<g>
					<path id="XMLID_178_" class="st14" d="M285.94,214.02L285.94,214.02c-2.88-0.09-5.14-2.5-5.05-5.38l0.42-12.99l10.43,0.33
						l-0.42,12.99C291.23,211.85,288.82,214.11,285.94,214.02z"/>
					<g>
						<path class="st10" d="M264.29,243.07c-4.66-6.04-1.89-11.63,0.69-15.13c2.02-2.74,3.54-5.81,4.57-9.05l3.5-10.93l7.26,18.62
							l18.73-13.56l4.59,16.13l-10.22,31.4c-3.95,0.61-19.08,2.62-27.2-0.67C266.83,253.53,266.82,246.35,264.29,243.07z"/>
					</g>
					<path id="XMLID_126_" class="st16" d="M265.02,244.01c0,0,2.84,2.95,9.97,1.71c0,0-3.93,3.21-8.89,1.81L265.02,244.01z"/>
					<path id="XMLID_125_" class="st16" d="M281.07,245.15c0,0,9.48,3.23,14.71-0.84l-2.58,4.1
						C293.2,248.41,285.78,249.3,281.07,245.15z"/>
					<g>
						<path class="st10" d="M299.08,212.81l0.03,0.02l-0.07,0.2c0,0,7.91,6.68,9.03,14.31c0.62,4.26,1.04,10.81,1.29,15.76
							c-1.72,0.67-4.07,1.12-7.44,0.98c-0.04-0.16-0.08-0.32-0.12-0.47c-1.03-4.01-2.06-8.26-3.09-12.78l-1.6-10.6L299.08,212.81z"
							/>
						<path class="st16" d="M299.03,213.03l0.07-0.2l6.28,3.95c3.04,2.13,6.53,7.49,6.74,11.2c0.23,4.11,0.57,8.03,0.98,11.77
							c0.03,0.3,0.07,0.58,0.1,0.87c-0.89,0.81-2.02,1.77-3.84,2.48c-0.25-4.96-0.67-11.5-1.29-15.76
							C306.95,219.71,299.03,213.03,299.03,213.03z"/>
					</g>
					<g>
						<path class="st16" d="M300.74,238.01l-2.27-8.86c-1.29,7.12-0.88,14.31-5.82,18.98c-0.12,0.37-0.25,0.74-0.38,1.11
							c-1.18,3.26-1.37,8.05-1.88,11.73c1.28-0.16,2.32-0.31,3.01-0.41L300.74,238.01z"/>
					</g>
					<path class="st10" d="M299.03,213.03c0,0-10.61,6.68-16.64,5.91c-6.03-0.78-4.27-9.75-4.27-9.75s-2.96-0.34-5.08-1.21
						c0,0-2.27,21.88,5.08,21.88C285.47,229.85,299.58,220.79,299.03,213.03z"/>
				</g>
			</g>
			<path class="st14" d="M302.5,269.51c0.3,16.71,2.01,26.64,2.01,26.64s-2.89,5.63-2.97,7.56c0,0,0.43,0.43,0.96,0.15
				c0.53-0.28,1.55-2.41,1.55-2.41s-0.65,6.66-0.28,7.54c0.37,0.87,3.34,1.43,4.33,1.24c0.98-0.19,1.87-6.13,1.99-7.09
				c0.11-0.97-0.98-5.96-0.98-5.96l-2.36-14.67L302.5,269.51z"/>
		</g>
		<g>
			<path class="st4" d="M231.88,139.51c-0.92-0.18-1.68-0.77-2.1-1.63c-0.46-0.98-0.37-2.09,0.25-2.97l12.25-17.39
				c0.6-0.84,1.57-1.31,2.6-1.25c1.03,0.07,1.94,0.65,2.42,1.56l10.1,18.92c0.51,0.95,0.46,2.1-0.13,3
				c-0.58,0.9-1.61,1.41-2.68,1.34l-22.35-1.53C232.12,139.55,232,139.54,231.88,139.51z M232.3,136.51
				c-0.02,0.02-0.06,0.09-0.02,0.19c0.05,0.1,0.13,0.1,0.16,0.11l22.35,1.53c0.03,0,0.11,0.01,0.17-0.08
				c0.06-0.09,0.02-0.16,0.01-0.19l-10.1-18.92c-0.01-0.02-0.05-0.09-0.15-0.1c-0.1-0.01-0.15,0.06-0.16,0.08L232.3,136.51z"/>
		</g>
		<g>
			<path class="st4" d="M242.72,117.49L243.43,81c0.02-0.56,0.48-1,1.04-0.98l2.12,0.06c0.56,0.02,1,0.48,0.98,1.04l-0.71,36.49
				c-0.02,0.56-0.48,1-1.04,0.98l-2.12-0.06C243.14,118.51,242.7,118.05,242.72,117.49z"/>
		</g>
		<g>
			<g>
				<path class="st5" d="M234.26,139.71l0.19-2.78c0.04-0.57,0.53-0.99,1.1-0.96l16.47,1.13c0.57,0.04,0.99,0.53,0.96,1.1
					l-0.19,2.78c-0.04,0.57-0.53,0.99-1.1,0.96l-16.47-1.13C234.65,140.77,234.23,140.28,234.26,139.71z"/>
			</g>
		</g>
		<path class="st14" d="M242.82,135.05c3.99,0.48,4.57,0.24,4.88,1.21c0.31,0.97-0.48,2.13-1.31,2.15c-0.82,0.03-5.08-0.05-6.02-0.3
			c-0.94-0.24-1.26-1.43-1.26-1.88C239.12,135.78,238.61,134.55,242.82,135.05z"/>
		<path class="st4" d="M298.57,190.14c0,0.68-0.55,1.24-1.24,1.24c-0.68,0-1.24-0.55-1.24-1.24c0-0.68,0.55-1.24,1.24-1.24
			C298.01,188.9,298.57,189.46,298.57,190.14z"/>
	</g>
	<g>
		<path class="st8" d="M400.15,157.22c0,0,9.05-5.97,13.12,2.64c4.06,8.61-9.41,19.82-6.56,33.95c2.85,14.13,10.89,25.34-2.09,31.87
			c-12.98,6.53-39.01,2.8-31.26-17.13c7.75-19.93-0.52-31.7-0.52-31.7S374.85,149.42,400.15,157.22z"/>
		<g>
			<path class="st2" d="M432.09,284.34c0-1.3-1.06-2.36-2.36-2.36h-99.4c-1.3,0-2.36,1.06-2.36,2.36c0,1.3,1.06,2.36,2.36,2.36h99.4
				C431.04,286.7,432.09,285.65,432.09,284.34z"/>
		</g>
		<g>
			<path class="st8" d="M372.02,162.07c0,0,2.66-10.17,19.05-10.17c13.17,0,17.3,15.53,9.92,27.56c0,0-3.18,10.34-7.77,10.68
				L372.02,162.07z"/>
			<polygon class="st17" points="364.82,271.91 362.94,279.92 360.81,342.99 360.37,411.62 367.36,410.9 374.41,337.59 
				378.83,265.92 			"/>
			<g>
				<path class="st4" d="M371.03,178.24c0.13,0.12,0.17,0.28,0.17,0.46c-0.4,0.45-0.84,1.08-1.27,1.93
					c-1.06,2.14-0.95,3.56-0.67,3.7c0.28,0.14,1.48-0.64,2.53-2.78c0.23-0.46,0.39-0.88,0.52-1.27l0,0.01c0,0,0.53-0.07,1.02-0.18
					c-0.17,0.61-0.41,1.25-0.71,1.86c-1,2.02-2.62,3.77-3.78,3.2c-1.16-0.57-0.76-2.92,0.24-4.95c0.39-0.8,0.88-1.55,1.41-2.14
					C370.69,178.07,370.88,178.1,371.03,178.24z"/>
			</g>
			<g>
				<g>
					<path class="st18" d="M376.39,289.23l3.58-1.42l-0.25,7.74l-3.3-1.9C376.39,290.84,376.39,289.23,376.39,289.23z"/>
					<path class="st5" d="M360.43,341.54c0,0,0-0.62-0.11-1.74c-3.65-38.88-1.5-53.83,2.78-73.9l0.27-1.47l15.72,1.29
						c0,0,7.27,7.12,7.05,16.45c-0.04,1.68-0.38,4.75-0.9,8.64l-4.14-3.46l-1.13,0.45l0-0.13c0,0-2.93-1.27-4.68-3.09
						c0,0-0.04,4.01,1.09,9.05l0.03,0.02c0.1,7.26,0.51,22.53,2.09,38.7c-1.14,6.52-1.94,10.96-1.94,10.96s1.86,8.64,1.19,16.07
						c-0.67,7.43-8.91,40.63-8.91,40.63s-3.13,1.01-8.73-1.14C360.12,398.86,358.62,365.62,360.43,341.54z"/>
					<path class="st8" d="M375.31,284.57c1.75,1.83,4.68,3.09,4.68,3.09l0,0.13l-3.58,1.42c0,0-0.01,1.61,0.03,4.42l-0.03-0.02
						C375.27,288.58,375.31,284.57,375.31,284.57z"/>
				</g>
				<path class="st8" d="M376.39,289.23l4.72-1.87l4.14,3.46c-1.53,11.37-4.68,29.81-6.73,41.53
					C376.33,309.92,376.39,289.23,376.39,289.23z"/>
			</g>
			<polygon class="st17" points="381.11,267.34 389.12,356.66 396.04,408.42 402.47,408.85 401.82,355.03 399.35,273.41 			"/>
			<path class="st5" d="M395.47,263.43c0,0,8.38,6.71,10.46,18.94c3.03,17.74-2.9,58.32-2.9,58.32s2.96,7.7,3.26,15.16
				c0.3,7.46-3.06,45.2-3.06,45.2s-2.98,1.41-8.8,0c0,0-5.39-36.02-6.72-60.13c0,0-5.7-28.56-7.41-49.78l-2.53-28.39L395.47,263.43z
				"/>
			<path class="st17" d="M367.37,206.34c-3.26,1.68-5.44,4.9-6.04,8.52c-1.58,9.6-5.49,31.97-9.24,42.02
				c-4.79,12.8-9.93,25.11-9.93,25.11l5.95-0.01c0,0,8.08-13.02,12.3-20.19c4.22-7.17,11.67-46.77,11.67-46.77l1.27-10.47
				C373.36,204.55,370.63,204.66,367.37,206.34z"/>
			<path class="st17" d="M391.44,202.29c-1.19-0.9-4.53-1.91-4.98-1.78c-0.42-0.22-3.88,0.15-5.22,0.81
				c-8.14,4.03-18.84,4.01-19.53,11.24c0,0-1.79,7.14,2.25,7.53l22.41,16.41l18.54-12.54c4.04,0.38,4.69-4.79,4.69-4.79
				C410.26,211.93,398.68,207.77,391.44,202.29z"/>
			<g>
				<path class="st17" d="M380.25,189.13l-0.07,2.05c1.38-0.61,2.86-1.28,4.29-1.91L380.25,189.13z"/>
				<path class="st17" d="M379.92,199.66l-0.11,3.3c-0.09,2.77,2.09,5.1,4.86,5.18l0.76,0.02c2.77,0.09,5.1-2.09,5.18-4.86
					l0.21-6.49C386.05,199.52,381.63,199.72,379.92,199.66z"/>
				<path class="st19" d="M384.48,189.26c-1.43,0.63-2.91,1.3-4.29,1.91l-0.27,8.49c1.72,0.05,6.13-0.15,10.91-2.84l0.24-7.35
					L384.48,189.26z"/>
			</g>
			<g>
				<path class="st12" d="M401.9,228.39l-3.86-0.16c-2.41-4.25-3.05-10.13-3.05-10.13s-8.04,4.31-16.37,4.31s-10.02-4.31-10.02-4.31
					s-13.32,10.66-5.98,20.17c4.26,5.52,1.63,21.73,0.49,27.63c3.25,1.1,6.62,1.81,9.9,1.81c11.14,0,18.41-2.53,21.19-3.7
					l-1.85-6.26L401.9,228.39z"/>
			</g>
			<path class="st20" d="M363.38,239.24c0,0,2.94,3.06,10.33,1.77c0,0-4.08,3.33-9.22,1.88L363.38,239.24z"/>
			<path class="st20" d="M380,240.43c0,0,9.82,3.35,15.24-0.87l-2.67,4.25C392.58,243.8,384.89,244.72,380,240.43z"/>
			<path class="st20" d="M373,267.72c0,0,13.98-8.72,19.01-24.2c5.12-4.84,5.4-13.93,7.16-20.6l2.18,9.42l-7.57,23.9l1.69,7.2
				C395.47,263.43,386.3,268.74,373,267.72z"/>
			<g>
				<path class="st19" d="M379.43,196.4c0,0-2.57-13.98-1.42-18.09l1.42-16.72c1.15-4.11,4.33-7.83,8.2-7.42l9.51,1.02
					c3.87,0.41,6.93,5.07,5.78,9.18l-7.64,23.91C394.12,192.39,389.4,197.37,379.43,196.4z"/>
				<path class="st17" d="M379.3,196.4l-0.26-0.01c-5.6-0.6-9.77-5.86-9.17-11.45l1.32-19.57c0.53-4.99,5.05-8.63,10.04-8.1
					l12.51,1.34c1.43,0.15,4.23,1.65,4.08,3.08l-3.72,21.89C393.28,191.28,387.01,197.22,379.3,196.4z"/>
				<path class="st19" d="M376.3,180.12c0,0,0.24,2.42,2.07,2.61c1.83,0.18,2.96-1.48,2.96-1.48s-1.98,0.42-3.07,0.18
					C377.17,181.19,376.3,180.12,376.3,180.12z"/>
				<path class="st19" d="M401.52,183.42c-1.58,2.54-4.17,3.78-5.79,2.77c-0.16-0.1-0.3-0.22-0.43-0.35
					c-1.17-1.22-1.06-3.78,0.37-6.07c1.58-2.54,4.17-3.78,5.79-2.77C403.07,178,403.1,180.88,401.52,183.42z"/>
				<path class="st8" d="M387.2,158.44"/>
			</g>
			<path class="st17" d="M408.96,267.46c0,0,6.63-51.96-3.08-54.65c-9.71-2.69-7.68,18.54-7.68,18.54l2.11,33.99l8.49,2.39
				C408.91,267.55,408.96,267.46,408.96,267.46z"/>
			<path class="st17" d="M400.01,260.53l0.31,7.62c-2.28,15.25-6.82,30.13-6.84,30.67c-0.02,0.53,7.61-4.88,7.59-4.34
				c-0.02,0.5,7.23-23.99,7.89-27.03L400.01,260.53z"/>
			<g>
				<path class="st4" d="M397.05,184.6c0.17,0.05,0.28,0.18,0.36,0.34c-0.16,0.58-0.28,1.34-0.28,2.29c0,2.38,0.73,3.61,1.04,3.61
					c0.31,0,1.04-1.23,1.04-3.61c0-0.52-0.04-0.97-0.1-1.37l0.01,0c0,0,0.45-0.3,0.84-0.61c0.12,0.62,0.18,1.3,0.18,1.98
					c0,2.26-0.68,4.54-1.97,4.54c-1.29,0-1.97-2.29-1.97-4.54c0-0.89,0.11-1.78,0.31-2.54C396.68,184.6,396.86,184.55,397.05,184.6z
					"/>
			</g>
			<path class="st8" d="M391.93,168.81c3.15,1.89,6.04,3.89,8.33,6.46c0.01-0.03,0.03-0.05,0.04-0.07
				c1.48-2.74,6.95-16.27-1.52-19.91c-8.43-3.63-22.44-5.13-24.56,6.68C380.49,162.62,386.61,165.62,391.93,168.81z"/>
			<path class="st4" d="M393.8,219c0,0,1.83-7.3,3.65-13.03c0,0,0.89,0,1.55,0.58c0,0-2.67,7.75-3.87,14.01
				C395.13,220.56,394.19,220.33,393.8,219z"/>
		</g>
		<path class="st8" d="M372.83,175.13c0,0,0.35-4.29,2.44-4.03c2.08,0.26,1.18,4.82,1.18,4.82s-0.08-3.49-1.39-3.66
			C373.75,172.1,372.83,175.13,372.83,175.13z"/>
		<path class="st8" d="M384.42,177.47c0,0,0.99-4.66,3.79-3.9c2.8,0.76,1.03,5.58,1.03,5.58s0.31-3.87-1.45-4.35
			C386.02,174.33,384.42,177.47,384.42,177.47z"/>
		<path class="st8" d="M382.63,164.11c0,0,1.38,2.26,1.83,5.71c0,0,0.96-1.73,1.29-3.14c0,0,3.86,3.19,4.83,8.66
			c0,0,1.21-1.9,1.7-3.34c0,0,0.48,4.15,2.95,10.51c0,0,2.18-4.58,5.33-6.58c0,0,2.15-11.44-5.56-15.03
			C387.28,157.31,382.63,164.11,382.63,164.11z"/>
		<path class="st8" d="M384.08,162.04l-1.46,2.07c0,0-2.03,1.46-3.64,5.35c0,0-0.62-2.52-0.09-5.03c0,0-3.54,2.36-5.39,5.47
			c0,0-0.15-1.85,0.09-3.35c0,0-2.64,5.01-3.09,9.04c0,0-0.46-5,0-9.82c0.46-4.81,4.52-10.82,12.12-12.65
			C390.22,151.29,384.08,162.04,384.08,162.04z"/>
		<path class="st8" d="M376.3,187.31l4.82,0.72c0,0-1.36,2.04-3.12,1.76C376.24,189.51,376.3,187.31,376.3,187.31z"/>
		<g>
			<path class="st17" d="M400.83,292.27l-5.27,0.5l0,0c0,0-3.5,6.81-3.59,9.15c0,0,0.52,0.52,1.16,0.18
				c0.64-0.34,1.87-2.92,1.87-2.92s-0.79,8.06-0.34,9.12c0.45,1.06,4.04,1.73,5.23,1.51c1.19-0.22,2.27-7.41,2.4-8.58
				c0.13-1.17-1.19-7.21-1.19-7.21L400.83,292.27z"/>
		</g>
		<path class="st17" d="M343.02,280.05c0,0-5.15,0.13-6.3,0.53c-1.15,0.4-1.41,1.41-1.41,1.41h9.48L343.02,280.05z"/>
		<path class="st17" d="M342.97,281.9c0,0,0.96,0.88,1.42,1.6c0.47,0.72,1.32,1.82,1.66,1.79c0.45-0.05,0.7-0.92,0.43-1.86
			c-0.25-0.84-0.79-2.42-0.79-2.42L342.97,281.9z"/>
		<path class="st17" d="M339.22,288.12c2.1-0.1,3.25-0.01,3.74-0.56c0.49-0.54,1.15-1.69,0.47-1.93c-0.68-0.24-4.74-0.18-5.72-0.19
			c-0.99-0.01-1.59,1.24-1.59,1.24h-1c0,0,0,1.03,0.97,1.24C337.06,288.15,338.32,288.17,339.22,288.12z"/>
		<path class="st17" d="M339.47,281.99c2.53,0,4,0.23,4.82,1.37c0.82,1.13,0.61-1.16,0.61-1.16s-1.38-1.4-1.47-1.4s-4.08,0-4.08,0
			l-0.38,0.22C338.97,281.02,337.93,281.99,339.47,281.99z"/>
		<g>
			<path class="st8" d="M369.99,410.48c-0.16-1.06-0.54-2.96-0.77-4.08c-0.1-0.48-0.57-0.77-1.04-0.65
				c-0.93,0.25-2.45,0.61-3.73,0.61c-2,0-3.6-0.86-4.85-0.56c-1.25,0.3-1.83,3.18-1.83,3.18c-2.76,1.07-6.58,1.01-6.58,1.01
				s-0.39,0.02-0.98,0.07c0.54,0.81,1.07,1.91,1.39,3.38h18.48C370.11,412.38,370.1,411.21,369.99,410.48z"/>
			<path class="st0" d="M351.6,413.43c-0.32-1.47-0.85-2.58-1.39-3.38c-0.88,0.08-2.23,0.23-3.5,0.54
				c-2.12,0.52-2.52,2.84-2.52,2.84l-0.03,2.22h7.71h18.11c0,0,0.07-1.03,0.1-2.22H351.6z"/>
		</g>
		<g>
			<path class="st8" d="M405.14,410.48c-0.16-1.06-0.54-2.96-0.77-4.08c-0.1-0.48-0.57-0.77-1.04-0.65
				c-0.93,0.25-2.45,0.61-3.73,0.61c-2,0-3.6-0.86-4.85-0.56c-1.25,0.3-1.83,3.18-1.83,3.18c-2.76,1.07-6.58,1.01-6.58,1.01
				s-0.39,0.02-0.98,0.07c0.54,0.81,1.07,1.91,1.39,3.38h18.49C405.26,412.38,405.25,411.21,405.14,410.48z"/>
			<path class="st0" d="M386.75,413.43c-0.32-1.47-0.85-2.58-1.39-3.38c-0.88,0.08-2.23,0.23-3.5,0.54
				c-2.12,0.52-2.52,2.84-2.52,2.84l-0.03,2.22h7.71h18.11c0,0,0.07-1.03,0.1-2.22H386.75z"/>
		</g>
		<path class="st12" d="M377.47,202.9c1.54,6.56,4.71,11.41,15.52,0.51c0,0,5.4,1.03,9.46,5.96c0,0-7.34,5.91-4.41,18.87h-26.56
			l-3.65-9.57c0,0-1.13-5.5-0.99-12.15c0,0,2.79-1.6,5.3-2.61C374.66,202.87,377.47,202.9,377.47,202.9z"/>
		<path class="st12" d="M366.93,211.14c0.71,6.45-4.12,13.54-4.12,13.54l13.49,6.64c0,0,4.53-12.94,4.85-13.22
			c0.33-0.28-10.71-12.91-10.71-12.91L366.93,211.14z"/>
	</g>
</g>
<g id="DESIGNED_BY_FREEPIK">
</g>
</svg>
