<?xml version="1.0" encoding="utf-8"?>
<!-- Generator: Adobe Illustrator 27.3.1, SVG Export Plug-In . SVG Version: 6.00 Build 0)  -->
<svg version="1.1" xmlns="http://www.w3.org/2000/svg" xmlns:xlink="http://www.w3.org/1999/xlink" x="0px" y="0px"
	 viewBox="0 0 500 500" style="enable-background:new 0 0 500 500;" xml:space="preserve">
<style type="text/css">
	.st0{fill:#EBEBEB;}
	.st1{fill:#E6E6E6;}
	.st2{fill:#F5F5F5;}
	.st3{fill:#FAFAFA;}
	.st4{fill:#FFFFFF;}
	.st5{fill:#F0F0F0;}
	.st6{fill:#E0E0E0;}
	.st7{display:none;}
	.st8{display:inline;}
	.st9{fill:#407BFF;}
	.st10{opacity:0.9;fill:#FFFFFF;}
	.st11{opacity:0.2;fill:#FFFFFF;}
	.st12{opacity:0.1;}
	.st13{opacity:0.1;fill:#407BFF;}
	.st14{fill:#FFC3BD;}
	.st15{opacity:0.2;}
	.st16{fill:#263238;}
	.st17{fill:#ED847E;}
	.st18{opacity:0.15;fill:#FFFFFF;}
</style>
<g id="Background_Complete">
	<g>
		<rect y="382.4" class="st0" width="500" height="0.25"/>
		<rect x="333.33" y="389.21" class="st0" width="73.79" height="0.25"/>
		<rect x="103.62" y="390.89" class="st0" width="8.69" height="0.25"/>
		<rect x="408.12" y="398.49" class="st0" width="19.19" height="0.25"/>
		<rect x="200" y="395.11" class="st0" width="48.67" height="0.25"/>
		<rect x="166.72" y="395.11" class="st0" width="24.38" height="0.25"/>
		<rect x="52.46" y="390.89" class="st0" width="33.15" height="0.25"/>
		<path class="st0" d="M237.01,337.8H43.92c-3.15,0-5.71-2.56-5.71-5.71V60.66c0-3.15,2.56-5.71,5.71-5.71h193.1
			c3.15,0,5.71,2.56,5.71,5.71v271.43C242.72,335.24,240.16,337.8,237.01,337.8z M43.92,55.2c-3.01,0-5.46,2.45-5.46,5.46v271.43
			c0,3.01,2.45,5.46,5.46,5.46h193.1c3.01,0,5.46-2.45,5.46-5.46V60.66c0-3.01-2.45-5.46-5.46-5.46H43.92z"/>
		<path class="st0" d="M453.31,337.8h-193.1c-3.15,0-5.71-2.56-5.71-5.71V60.66c0-3.15,2.56-5.71,5.71-5.71h193.1
			c3.15,0,5.71,2.56,5.71,5.71v271.43C459.02,335.24,456.46,337.8,453.31,337.8z M260.21,55.2c-3.01,0-5.46,2.45-5.46,5.46v271.43
			c0,3.01,2.45,5.46,5.46,5.46h193.1c3.01,0,5.46-2.45,5.46-5.46V60.66c0-3.01-2.45-5.46-5.46-5.46H260.21z"/>
	</g>
	<g>
		<g>
			<g>
				<g>
					
						<rect x="76" y="94.69" transform="matrix(-1 -1.224647e-16 1.224647e-16 -1 305.9944 369.8144)" class="st1" width="153.99" height="180.44"/>
					
						<rect x="72.58" y="94.69" transform="matrix(-1 -1.224647e-16 1.224647e-16 -1 299.137 369.8144)" class="st2" width="153.99" height="180.44"/>
					
						<rect x="76" y="275.13" transform="matrix(-1 -1.224647e-16 1.224647e-16 -1 305.9944 556.0939)" class="st1" width="153.99" height="5.84"/>
					
						<rect x="66.42" y="275.13" transform="matrix(-1 -1.224647e-16 1.224647e-16 -1 286.8282 556.0939)" class="st2" width="153.99" height="5.84"/>
					
						<rect x="65.1" y="114.07" transform="matrix(-1.836970e-16 1 -1 -1.836970e-16 334.4757 35.3386)" class="st3" width="168.94" height="141.68"/>
					<polygon class="st4" points="206.49,269.38 182.19,100.43 143.41,100.43 167.71,269.38 					"/>
					<polygon class="st4" points="158.66,269.38 134.37,100.43 107.66,100.43 131.96,269.38 					"/>
					
						<rect x="-4.45" y="183.61" transform="matrix(-1.836970e-16 1 -1 -1.836970e-16 264.9337 104.8807)" class="st1" width="168.94" height="2.59"/>
					
						<rect x="75.12" y="245.76" transform="matrix(-1 -1.224647e-16 1.224647e-16 -1 299.137 499.2422)" class="st2" width="148.89" height="7.71"/>
				</g>
			</g>
		</g>
		<g>
			<g>
				
					<rect x="287.72" y="144.33" transform="matrix(-1 -1.224647e-16 1.224647e-16 -1 599.2016 526.7317)" class="st1" width="23.76" height="238.07"/>
				<polygon class="st5" points="292.23,382.4 287.72,382.4 287.72,369.56 296.97,369.56 				"/>
				
					<rect x="407.15" y="144.33" transform="matrix(-1 -1.224647e-16 1.224647e-16 -1 838.0633 526.7317)" class="st1" width="23.76" height="238.07"/>
				
					<rect x="287.72" y="144.33" transform="matrix(-1 -1.224647e-16 1.224647e-16 -1 698.8108 520.4116)" class="st5" width="123.37" height="231.74"/>
				<path class="st6" d="M343.71,359H295.4c-2.59,0-4.7-2.11-4.7-4.7V152.26c0-2.59,2.11-4.7,4.7-4.7h48.31c2.59,0,4.7,2.11,4.7,4.7
					V354.3C348.41,356.89,346.31,359,343.71,359z M295.4,148.6c-2.01,0-3.65,1.64-3.65,3.65V354.3c0,2.01,1.64,3.65,3.65,3.65h48.31
					c2.01,0,3.65-1.64,3.65-3.65V152.26c0-2.01-1.64-3.65-3.65-3.65H295.4z"/>
				<path class="st6" d="M403.41,359H355.1c-2.59,0-4.7-2.11-4.7-4.7V152.25c0-2.59,2.11-4.7,4.7-4.7h48.31c2.59,0,4.7,2.11,4.7,4.7
					V354.3C408.11,356.89,406,359,403.41,359z M355.1,148.6c-2.01,0-3.65,1.64-3.65,3.65V354.3c0,2.01,1.64,3.65,3.65,3.65h48.31
					c2.01,0,3.65-1.64,3.65-3.65V152.25c0-2.01-1.64-3.65-3.65-3.65H355.1z"/>
				<path class="st3" d="M363.6,254.01c0,2.22-1.8,4.01-4.01,4.01s-4.01-1.8-4.01-4.01c0-2.22,1.8-4.01,4.01-4.01
					S363.6,251.8,363.6,254.01z"/>
				<path class="st3" d="M343.24,254.01c0,2.22-1.8,4.01-4.01,4.01s-4.01-1.8-4.01-4.01c0-2.22,1.8-4.01,4.01-4.01
					S343.24,251.8,343.24,254.01z"/>
				<polygon class="st5" points="406.58,382.4 411.09,382.4 411.09,369.56 401.85,369.56 				"/>
			</g>
			<g>
				<polygon class="st1" points="364.51,110.11 326.66,110.11 342.44,104.75 380.29,104.75 				"/>
				
					<rect x="373.55" y="110.11" transform="matrix(-1 -1.224647e-16 1.224647e-16 -1 784.945 254.4444)" class="st0" width="37.85" height="34.22"/>
				
					<rect x="320.3" y="127.88" transform="matrix(-1 -1.224647e-16 1.224647e-16 -1 650.7139 272.2139)" class="st0" width="10.11" height="16.45"/>
				<rect x="307.77" y="127.88" class="st2" width="12.53" height="16.45"/>
				<polygon class="st0" points="373.55,110.11 411.4,110.11 395.62,106.56 357.77,106.56 				"/>
				<rect x="326.66" y="110.11" class="st2" width="46.89" height="34.22"/>
			</g>
		</g>
		<g>
			<polygon class="st2" points="177.89,382.4 210.35,382.4 206.52,304.29 177.89,304.29 			"/>
			<g>
				<polygon class="st1" points="75.24,382.4 199.88,382.4 208.5,301.67 83.85,301.67 				"/>
				<polygon class="st5" points="71.63,382.4 196.27,382.4 204.89,301.67 80.24,301.67 				"/>
				<polygon class="st3" points="190.42,373.46 198.3,310.6 86.1,310.6 78.22,373.46 				"/>
			</g>
		</g>
	</g>
</g>
<g id="Background_Simple" class="st7">
	<g class="st8">
		<path class="st9" d="M371.16,160.39c-21.17-16.06-42.19,8.87-64.42,10.97c-26.65,2.52-35.32-7.52-52.71-23.09
			c-25.65-22.96-52.45-53.2-92.67-48.94C53.38,110.75,60.45,231.69,121.04,283.12c39.29,33.35,80.98,11.2,129.36,11.94
			c43.61,0.66,112.94,37.42,155.24,11.73c37.68-22.88,25.11-74.35-12.73-85.78c-12.25-3.7-19.68-13.91-18.47-26.33
			C375.57,183.01,382.5,168.99,371.16,160.39z"/>
		<path class="st10" d="M371.16,160.39c-21.17-16.06-42.19,8.87-64.42,10.97c-26.65,2.52-35.32-7.52-52.71-23.09
			c-25.65-22.96-52.45-53.2-92.67-48.94C53.38,110.75,60.45,231.69,121.04,283.12c39.29,33.35,80.98,11.2,129.36,11.94
			c43.61,0.66,112.94,37.42,155.24,11.73c37.68-22.88,25.11-74.35-12.73-85.78c-12.25-3.7-19.68-13.91-18.47-26.33
			C375.57,183.01,382.5,168.99,371.16,160.39z"/>
	</g>
</g>
<g id="Shadow_1_">
	<ellipse id="_x3C_Path_x3E__361_" class="st2" cx="250" cy="416.24" rx="193.89" ry="11.32"/>
</g>
<g id="Browser">
	<g>
		
			<rect x="348.16" y="174.61" transform="matrix(0.05 -0.9987 0.9987 0.05 167.1339 525.9984)" class="st9" width="23.81" height="1.07"/>
		
			<rect x="354.71" y="195.71" transform="matrix(0.05 -0.9987 0.9987 0.05 145.0426 544.9875)" class="st9" width="8.58" height="1.07"/>
		<path class="st9" d="M334.22,355.35H231.99c-7.44,0-13.22-6.09-12.85-13.53l11.4-226c0.38-7.44,6.77-13.53,14.21-13.53h102.23
			c7.44,0,13.22,6.09,12.85,13.53l-11.4,226C348.06,349.26,341.66,355.35,334.22,355.35z"/>
		<path class="st11" d="M306.71,333.86h-30.83c-4.56,0-8.78-1.79-11.87-5.04c-3.1-3.26-4.67-7.57-4.44-12.14l5.47-108.5
			c0.48-9.44,8.54-17.12,17.99-17.12h30.83c4.56,0,8.78,1.79,11.87,5.04c3.1,3.26,4.67,7.57,4.44,12.14l-5.47,108.5
			C324.22,326.18,316.15,333.86,306.71,333.86z M283.02,192.19c-8.85,0-16.41,7.2-16.86,16.05l-5.47,108.5
			c-0.21,4.26,1.25,8.27,4.13,11.3c2.88,3.02,6.8,4.69,11.05,4.69h30.83c8.85,0,16.41-7.2,16.86-16.05l5.47-108.5
			c0.21-4.26-1.25-8.27-4.13-11.3c-2.88-3.02-6.8-4.69-11.05-4.69H283.02z"/>
		<path class="st12" d="M280.83,221.03h-26.06c-7.44,0-13.22-6.09-12.85-13.53l1.31-26.06c0.38-7.44,6.77-13.53,14.21-13.53h26.06
			c7.44,0,13.22,6.09,12.85,13.53l-1.31,26.06C294.67,214.95,288.28,221.03,280.83,221.03z"/>
		<path class="st4" d="M273.25,213.04h-26.06c-7.44,0-13.22-6.09-12.85-13.53l1.31-26.06c0.38-7.44,6.77-13.53,14.21-13.53h26.06
			c7.44,0,13.22,6.09,12.85,13.53l-1.31,26.06C287.08,206.96,280.69,213.04,273.25,213.04z"/>
		<path class="st12" d="M317.43,321.84h-18.57c-5.3,0-9.42-4.34-9.15-9.64l0.94-18.57c0.27-5.3,4.82-9.64,10.13-9.64h18.57
			c5.3,0,9.42,4.34,9.15,9.64l-0.94,18.57C327.29,317.5,322.74,321.84,317.43,321.84z"/>
		<path class="st4" d="M312.03,316.15h-18.57c-5.3,0-9.42-4.34-9.15-9.64l0.94-18.57c0.27-5.3,4.82-9.64,10.13-9.64h18.57
			c5.3,0,9.42,4.34,9.15,9.64l-0.94,18.57C321.89,311.81,317.33,316.15,312.03,316.15z"/>
		<path class="st4" d="M250.15,259.92h-13.4c-3.83,0-6.8-3.13-6.61-6.96l0.68-13.4c0.19-3.83,3.48-6.96,7.31-6.96h13.4
			c3.83,0,6.8,3.13,6.61,6.96l-0.68,13.4C257.26,256.79,253.97,259.92,250.15,259.92z"/>
		<path class="st4" d="M336.08,259.92h-13.4c-3.83,0-6.8-3.13-6.61-6.96l0.68-13.4c0.19-3.83,3.48-6.96,7.31-6.96h13.4
			c3.83,0,6.8,3.13,6.61,6.96l-0.68,13.4C343.2,256.79,339.91,259.92,336.08,259.92z"/>
		<path class="st4" d="M293.12,259.92h-13.4c-3.83,0-6.8-3.13-6.61-6.96l0.68-13.4c0.19-3.83,3.48-6.96,7.31-6.96h13.4
			c3.83,0,6.8,3.13,6.61,6.96l-0.68,13.4C300.23,256.79,296.94,259.92,293.12,259.92z"/>
		<path class="st4" d="M342.96,141.69h-98.15c-4.15,0-7.38-3.4-7.17-7.55l0.01-0.18c0.21-4.15,3.78-7.55,7.93-7.55h98.15
			c4.15,0,7.38,3.4,7.17,7.55l-0.01,0.18C350.68,138.29,347.11,141.69,342.96,141.69z"/>
		<polygon class="st9" points="338.55,129.75 339.8,132.58 342.9,133.03 340.53,135.23 340.91,138.33 338.19,136.87 335.33,138.33 
			336.02,135.23 333.88,133.03 337.02,132.58 		"/>
		<path class="st13" d="M250.49,134.04c-0.08,1.56-1.4,2.82-2.96,2.82c-1.56,0-2.76-1.26-2.68-2.82c0.08-1.56,1.4-2.82,2.96-2.82
			C249.37,131.22,250.56,132.49,250.49,134.04z"/>
		<path class="st13" d="M257.72,134.04c-0.08,1.56-1.4,2.82-2.96,2.82c-1.56,0-2.76-1.26-2.68-2.82c0.08-1.56,1.4-2.82,2.96-2.82
			C256.6,131.22,257.8,132.49,257.72,134.04z"/>
		<path class="st13" d="M264.96,134.04c-0.08,1.56-1.4,2.82-2.96,2.82c-1.56,0-2.75-1.26-2.68-2.82c0.08-1.56,1.4-2.82,2.96-2.82
			C263.84,131.22,265.04,132.49,264.96,134.04z"/>
		<polygon class="st11" points="286.24,114.45 291.9,118.89 292.35,110.02 		"/>
		<polygon class="st11" points="304.28,114.45 298.16,118.89 298.61,110.02 		"/>
		<path class="st11" d="M339.35,175.62h-35.7c-0.78,0-1.5-0.31-2.02-0.86c-0.53-0.55-0.8-1.29-0.76-2.07c0.08-1.6,1.45-2.9,3.04-2.9
			h35.7c0.78,0,1.5,0.3,2.02,0.86c0.53,0.56,0.8,1.29,0.76,2.07C342.32,174.32,340.95,175.62,339.35,175.62z M303.91,170.36
			c-1.3,0-2.42,1.06-2.48,2.36c-0.03,0.62,0.18,1.21,0.6,1.65c0.42,0.44,0.99,0.68,1.61,0.68h35.7c1.3,0,2.42-1.06,2.48-2.36
			c0.03-0.62-0.18-1.21-0.6-1.65c-0.42-0.44-0.99-0.68-1.61-0.68H303.91z"/>
		<path class="st11" d="M338.95,183.61h-35.7c-0.78,0-1.5-0.31-2.02-0.86c-0.53-0.56-0.8-1.29-0.76-2.07c0.08-1.6,1.45-2.9,3.05-2.9
			h35.7c0.78,0,1.5,0.31,2.02,0.86c0.53,0.56,0.8,1.29,0.76,2.07C341.91,182.31,340.55,183.61,338.95,183.61z M303.51,178.35
			c-1.3,0-2.42,1.06-2.48,2.36c-0.03,0.62,0.18,1.21,0.6,1.65c0.42,0.44,0.99,0.68,1.61,0.68h35.7c1.3,0,2.42-1.06,2.48-2.36
			c0.03-0.62-0.18-1.21-0.6-1.65c-0.42-0.44-0.99-0.68-1.61-0.68H303.51z"/>
		<path class="st11" d="M241.96,319.55c-0.78,0-1.5-0.31-2.02-0.86c-0.53-0.56-0.8-1.29-0.76-2.07l1.8-35.7
			c0.08-1.6,1.45-2.9,3.04-2.9c0.78,0,1.5,0.31,2.02,0.86c0.53,0.55,0.8,1.29,0.76,2.07l-1.8,35.7
			C244.92,318.25,243.56,319.55,241.96,319.55z M244.02,278.58c-1.3,0-2.42,1.06-2.48,2.36l-1.8,35.7l0,0
			c-0.03,0.62,0.18,1.21,0.6,1.65c0.42,0.44,0.99,0.68,1.61,0.68c1.3,0,2.42-1.06,2.48-2.36l1.8-35.7c0.03-0.62-0.18-1.21-0.6-1.65
			C245.22,278.83,244.65,278.58,244.02,278.58z M239.46,316.64L239.46,316.64L239.46,316.64z"/>
	</g>
</g>
<g id="Character_1_">
	<g>
		<g>
			<g>
				<path class="st14" d="M148.38,207.94l4.77,4.16l-8.81,3.98c0,0-0.43-2.07-0.67-5.3c-0.1-1.35,0.89-2.53,2.24-2.64L148.38,207.94
					z"/>
				<polygon class="st14" points="154.92,220.56 147.11,220.56 144.34,216.09 153.15,212.1 				"/>
			</g>
			<g>
				<g>
					<line class="st15" x1="116.54" y1="139.01" x2="116.54" y2="139.01"/>
				</g>
			</g>
			<g>
				<g>
					<path class="st14" d="M199.56,145.9c3.34,4.22,6.79,8.55,10.24,12.75c3.45,4.22,6.98,8.36,10.6,12.24l1.37,1.43l0.52,0.53
						c0.11,0.13,0.3,0.27,0.46,0.41c0.7,0.57,1.65,1.19,2.68,1.75c2.09,1.12,4.49,2.14,6.96,3.04c4.94,1.82,10.25,3.4,15.46,4.87
						l-0.77,5.88c-5.81-0.12-11.45-0.7-17.22-1.91c-2.88-0.63-5.77-1.39-8.74-2.59c-1.49-0.61-3.01-1.31-4.57-2.35
						c-0.4-0.28-0.78-0.52-1.19-0.86l-0.6-0.49l-0.43-0.38l-1.64-1.47c-4.29-3.95-8.21-8.11-11.96-12.37
						c-3.76-4.28-7.29-8.63-10.72-13.24L199.56,145.9z"/>
				</g>
				<polygon class="st14" points="257.21,181.93 259.35,190.19 250.97,189.72 252.87,180.5 				"/>
				<path class="st14" d="M245.55,182.91l7.32-2.41l-1.9,9.22c0,0-6.47,1.89-8.79-2.84L245.55,182.91z"/>
				<path class="st14" d="M157.75,149.43c-1.51,5.22-3.11,10.46-4.73,15.65l-2.4,7.77l-1.15,3.85l-0.55,1.9l-0.46,1.73
					c-0.18,0.68-0.28,1.85-0.32,3.01c-0.04,1.19-0.02,2.45,0.04,3.73c0.12,2.57,0.33,5.22,0.6,7.89c0.55,5.32,1.2,10.76,1.86,16.14
					l-5.74,1.46c-1.97-5.28-3.63-10.58-4.97-16.07c-0.65-2.75-1.26-5.53-1.7-8.41c-0.21-1.45-0.4-2.93-0.5-4.48
					c-0.1-1.57-0.15-3.16,0.13-5.19c0.08-0.57,0.14-0.82,0.21-1.21l0.2-1.08l0.42-2.1c0.29-1.39,0.61-2.76,0.93-4.11
					c0.64-2.72,1.31-5.41,2.03-8.09c1.42-5.36,2.97-10.63,4.68-15.91L157.75,149.43z"/>
				<path class="st16" d="M186.91,114.41c-0.13,0.62,0.09,1.21,0.49,1.31s0.84-0.32,0.97-0.94c0.13-0.62-0.09-1.21-0.49-1.31
					C187.48,113.36,187.04,113.79,186.91,114.41z"/>
				<path class="st17" d="M186.94,115.61c0,0,0.64,3.95,1.82,6.08c-1.31,0.75-3.07-0.19-3.07-0.19L186.94,115.61z"/>
				<path class="st16" d="M188.56,110.63c0.12,0,0.23-0.06,0.31-0.16c0.12-0.17,0.08-0.4-0.09-0.52c-0.06-0.04-1.5-1.03-3.39-0.25
					c-0.19,0.08-0.28,0.3-0.2,0.49c0.08,0.19,0.3,0.28,0.49,0.2c1.51-0.62,2.66,0.17,2.67,0.18
					C188.41,110.6,188.49,110.63,188.56,110.63z"/>
				<path class="st14" d="M165.48,116.39c-0.7,7.26,0.33,14.29-1.29,20.6c0,0,1.8,5.86,12.53,5.86c11.8,0,5.41-5.86,5.41-5.86
					c-6.5-1.54-6.52-6.32-5.57-10.8L165.48,116.39z"/>
				<path class="st9" d="M161.9,139c-0.92-1.85-1.53-4.48,0.37-5.14c2.09-0.73,13.26-0.97,17.31,0.4c4.05,1.37,3.06,5.13,3.06,5.13
					L161.9,139z"/>
				<path class="st9" d="M140.46,402.69c-0.78-0.18-1.58-0.54-2.12-0.82c-0.07-0.04-0.12-0.11-0.11-0.2
					c0.01-0.08,0.06-0.15,0.14-0.18c0.35-0.12,3.45-1.14,4.27-0.45c0.13,0.11,0.27,0.31,0.21,0.64c-0.08,0.45-0.3,0.77-0.66,0.95
					C141.72,402.88,141.1,402.84,140.46,402.69z M138.97,401.73c1.36,0.62,2.47,0.83,3.02,0.55c0.24-0.12,0.39-0.34,0.44-0.66
					c0.03-0.16-0.02-0.22-0.07-0.26C141.94,401,140.22,401.35,138.97,401.73z"/>
				<path class="st9" d="M138.38,401.89c-0.04-0.01-0.07-0.03-0.1-0.06c-0.05-0.05-0.07-0.13-0.05-0.2c0.03-0.1,0.81-2.47,1.97-3.04
					c0.3-0.15,0.61-0.17,0.91-0.06h0c0.46,0.17,0.52,0.49,0.51,0.67c-0.04,0.98-2.16,2.42-3.14,2.69
					C138.44,401.9,138.41,401.9,138.38,401.89z M140.88,398.89c-0.16-0.04-0.33-0.02-0.5,0.07c-0.75,0.36-1.35,1.71-1.61,2.39
					c1.02-0.45,2.42-1.59,2.44-2.17c0-0.05,0.01-0.18-0.24-0.27l0,0C140.93,398.9,140.9,398.89,140.88,398.89z"/>
				<path class="st9" d="M195.08,408.8c-0.8,0-1.66-0.17-2.26-0.31c-0.08-0.02-0.14-0.08-0.15-0.17s0.02-0.16,0.09-0.21
					c0.31-0.2,3.1-1.91,4.05-1.42c0.15,0.08,0.33,0.24,0.35,0.58c0.03,0.46-0.11,0.82-0.42,1.08
					C196.35,408.68,195.74,408.8,195.08,408.8z M193.42,408.2c1.46,0.29,2.59,0.24,3.06-0.16c0.21-0.17,0.3-0.42,0.28-0.74
					c-0.01-0.16-0.07-0.21-0.13-0.24C196.13,406.81,194.55,407.54,193.42,408.2z"/>
				<path class="st9" d="M192.87,408.49c-0.04,0-0.08-0.01-0.11-0.03c-0.06-0.04-0.1-0.11-0.09-0.19c0.01-0.11,0.21-2.59,1.22-3.41
					c0.26-0.21,0.55-0.3,0.87-0.26c0,0,0,0,0,0c0.49,0.06,0.62,0.36,0.65,0.54c0.18,0.96-1.54,2.85-2.44,3.34
					C192.94,408.48,192.9,408.49,192.87,408.49z M194.61,405c-0.17,0-0.32,0.06-0.47,0.18c-0.64,0.52-0.92,1.98-1.02,2.7
					c0.89-0.67,1.99-2.1,1.88-2.67c-0.01-0.05-0.03-0.17-0.3-0.21l0,0C194.67,405,194.64,405,194.61,405z"/>
				<polygon class="st14" points="183.59,408.18 191.48,408.18 191.56,389.9 183.67,389.9 				"/>
				<polygon class="st14" points="128.59,401.42 136.19,402.81 141.64,384.82 134.04,383.43 				"/>
				<path class="st16" d="M137.64,400.79l-8.63-2.04c-0.31-0.07-0.63,0.08-0.76,0.37l-2.87,6.53c-0.3,0.68,0.13,1.49,0.85,1.64
					c3.02,0.66,4.52,0.83,8.32,1.73c2.33,0.55,7.1,1.93,10.32,2.7c3.15,0.75,4.28-2.36,3.01-2.96c-5.66-2.71-7.54-5.03-9.1-7.2
					C138.51,401.17,138.1,400.9,137.64,400.79z"/>
				<path class="st16" d="M191.39,407.26l-8.62,0c-0.32,0-0.59,0.22-0.65,0.54l-1.29,7.02c-0.13,0.73,0.45,1.42,1.19,1.4
					c3.11-0.05,7.59-0.24,11.5-0.24c4.57,0,6.2,0.25,11.56,0.25c3.24,0,4.01-3.28,2.65-3.57c-6.23-1.35-8.95-1.5-14.41-4.79
					C192.73,407.52,192.08,407.26,191.39,407.26z"/>
				<path class="st16" d="M149.66,139.86c-7.7,7.35-9.99,23.84-9.99,23.84l13.91,6.82c0,0,4.23-8.51,6.88-17.75
					C163.23,143.08,155.23,134.54,149.66,139.86z"/>
				<path class="st15" d="M156.58,150.75l-7.08,17.73l4.09,2.03c0,0,2.29-4.61,4.56-10.72L156.58,150.75z"/>
				<path class="st16" d="M198.37,174.03c-0.06,8.81-0.59,19.77-1.9,33.37h-42.22c-0.52-6.2,2.07-35.43-4.21-64.7
					c-0.47-2.18,0.99-4.31,3.19-4.65c2.69-0.42,6.37-0.9,9.97-1.07c5.38-0.26,13.19-0.43,17.94,0c6.28,0.57,12.23,2.19,12.23,2.19
					s3.61,3.91,4.71,22.25C198.28,165.05,198.39,169.22,198.37,174.03z"/>
				<path class="st9" d="M158.28,136.8l-1.85,0.22c-0.31,0.04-0.53,0.32-0.48,0.63c0.57,3.76,5.37,26.21,40.96,58.97
					c0.34,0.31,0.9,0.1,0.93-0.36l0.14-2.07c0.01-0.17-0.06-0.33-0.18-0.44c-35.85-32.78-38.7-52.82-38.91-56.42
					C158.88,136.99,158.6,136.76,158.28,136.8z"/>
				<path class="st9" d="M181.13,179.74l16.21,15.58l-1.87,1.18c-2.49,1.56-5.63,1.63-8.18,0.18l-4.28-2.43
					c-3.34-1.9-4.86-5.91-3.6-9.54L181.13,179.74z"/>
				<path class="st16" d="M186.49,193.71c0.14,0.31,0.79,0.26,1.46-0.12c0.67-0.38,1.1-0.94,0.96-1.26s-0.79-0.26-1.46,0.12
					C186.78,192.84,186.35,193.4,186.49,193.71z"/>
				<path class="st15" d="M198.37,174.03c-2.55-4.66-7.19-14.02-6.54-19.35l6.23,6.75C198.28,165.05,198.39,169.22,198.37,174.03z"
					/>
				<path class="st16" d="M185.08,146.32c-0.67,7.49,16.39,25.61,16.39,25.61l13.67-11.13c0,0-5.62-9.74-12.77-16.66
					C194.36,136.42,185.83,137.89,185.08,146.32z"/>
				<g class="st15">
					<polygon points="191.56,389.9 191.52,400.06 183.62,400.06 183.66,389.9 					"/>
					<polygon points="134.04,383.43 141.64,384.83 138.83,394.1 131.23,392.7 					"/>
				</g>
				<path class="st14" d="M166.6,107.89c-1.16,7.77-2.22,12.25,0.77,17.14c4.51,7.36,14.61,6.22,18.04-0.96
					c3.09-6.47,4.46-18.09-2.32-23.01C176.42,96.21,167.76,100.12,166.6,107.89z"/>
				<path class="st16" d="M180.61,115.08c-0.06,2.21-5.73,9.43-10.57,10.33c-5.23,0.97-6.57-0.51-7.4-7.64
					c-0.96-8.2-3.7-8.2-4.89-13.43c-1.5-6.59,4.95-12.59,12.59-8.95c6.62,3.15,12.74-3.05,17.3-4.89c4.56-1.85,5.26,3.43,2.22,6.98
					c-3.01,3.51,1.77,1.37,3.16,2.87c2.51,2.69-1.6,8.71-11.83,11.1C182.95,113.33,180.61,115.08,180.61,115.08z"/>
				<path class="st14" d="M178.21,112.69c-0.01,2.07,0.81,4.1,1.87,5.48c1.58,2.07,3.43,1.06,3.88-1.23
					c0.4-2.06,0.06-5.62-1.96-6.88C180.01,108.82,178.21,110.32,178.21,112.69z"/>
				<g>
					<path class="st9" d="M181.48,207.4c0,0-6.63,60.32-10.67,82.92c-4.43,24.75-27.37,102.42-27.37,102.42l-14.14-3.01
						c0,0,15.79-72.67,17.92-97.17c2.31-26.59,7.02-85.16,7.02-85.16H181.48z"/>
					<path class="st18" d="M181.48,207.4c0,0-6.63,60.32-10.67,82.92c-4.43,24.75-27.37,102.42-27.37,102.42l-14.14-3.01
						c0,0,15.79-72.67,17.92-97.17c2.31-26.59,7.02-85.16,7.02-85.16H181.48z"/>
				</g>
				<path class="st16" d="M146.61,387.98c0.06,0.01-2.41,5.16-2.41,5.16l-15.91-3.39l1.14-4.82L146.61,387.98z"/>
				<path class="st15" d="M176.65,228.9c-10.28,2.03-7.69,40.66-5.68,60.52c2.44-14.04,5.77-41.06,8.02-60.24
					C178.29,228.83,177.52,228.72,176.65,228.9z"/>
				<g>
					<path class="st9" d="M196.46,207.4c0,0,3.37,59.01,3.44,83.08c0.07,25.04-5.51,107.01-5.51,107.01h-13.37
						c0,0-3.6-80.51-5.14-105.1c-1.68-26.81-7.17-85-7.17-85H196.46z"/>
					<path class="st18" d="M196.46,207.4c0,0,3.37,59.01,3.44,83.08c0.07,25.04-5.51,107.01-5.51,107.01h-13.37
						c0,0-3.6-80.51-5.14-105.1c-1.68-26.81-7.17-85-7.17-85H196.46z"/>
				</g>
				<path class="st16" d="M196.76,392.18c0.06,0-0.54,5.55-0.54,5.55h-16.27l-0.63-4.95L196.76,392.18z"/>
			</g>
		</g>
	</g>
</g>
</svg>
