<?xml version="1.0" encoding="utf-8"?>
<!-- Generator: Adobe Illustrator 27.3.1, SVG Export Plug-In . SVG Version: 6.00 Build 0)  -->
<svg version="1.1" id="Capa_1" xmlns="http://www.w3.org/2000/svg" xmlns:xlink="http://www.w3.org/1999/xlink" x="0px" y="0px"
	 viewBox="0 0 425.68 425.68" style="enable-background:new 0 0 425.68 425.68;" xml:space="preserve">
<style type="text/css">
	.st0{fill:#000534;}
	.st1{fill:#FFFFFF;}
	.st2{fill:#A9CBEA;}
	.st3{fill:#354B99;}
	.st4{fill:#5E8BC4;}
	.st5{fill:#1D2953;}
	.st6{fill:#85C7C6;}
	.st7{fill:#1B2A67;}
	.st8{fill:#E7664F;}
	.st9{fill:#556CAD;}
	.st10{fill:#F1A167;}
	.st11{fill:#FAD7B4;}
	.st12{fill:#FBE4CB;}
	.st13{fill:#EB7F5D;}
	.st14{fill:#1D2685;}
	.st15{fill:#F8CFAA;}
	.st16{fill:#A4A3A8;}
</style>
<g id="Paquete_de_vectores:_motivo_de_puntos_15">
</g>
<g id="Paquete_de_vectores:_motivo_de_puntos_15_1_">
</g>
<g id="Paquete_de_vectores:_motivo_de_puntos_03">
</g>
<g>
	<g>
		<rect x="0.49" class="st0" width="425.2" height="425.2"/>
		<g>
			<path class="st1" d="M348.03,132.52c0.27-1.19,0.41-2.43,0.41-3.7c0-9.3-7.54-16.85-16.84-16.85c-3.69,0-7.09,1.19-9.87,3.2
				c-3.38-7.57-10.97-12.85-19.8-12.85c-5.18,0-9.93,1.82-13.65,4.84c-4.41-8.26-13.11-13.88-23.12-13.88
				c-11.71,0-21.63,7.69-24.98,18.3c-3.36-2.83-7.69-4.54-12.43-4.54c-8.57,0-15.83,5.58-18.36,13.3c-1.2-0.37-2.46-0.56-3.78-0.56
				c-7.08,0-12.83,5.68-12.94,12.74H348.03z"/>
			<path class="st1" d="M240.01,47.89c0.09-0.41,0.14-0.84,0.14-1.29c0-3.23-2.62-5.85-5.85-5.85c-1.28,0-2.46,0.41-3.43,1.11
				c-1.17-2.63-3.81-4.47-6.88-4.47c-1.8,0-3.45,0.63-4.74,1.68c-1.53-2.87-4.55-4.83-8.04-4.83c-4.07,0-7.52,2.67-8.68,6.36
				c-1.17-0.98-2.67-1.58-4.32-1.58c-2.98,0-5.5,1.94-6.38,4.62c-0.42-0.13-0.86-0.2-1.31-0.2c-2.46,0-4.46,1.98-4.5,4.43H240.01z"
				/>
			<path class="st1" d="M192.3,87.69c0.14-0.64,0.22-1.29,0.22-1.97c0-4.96-4.02-8.98-8.98-8.98c-1.96,0-3.78,0.63-5.26,1.7
				c-1.8-4.04-5.85-6.85-10.55-6.85c-2.76,0-5.29,0.97-7.28,2.58c-2.35-4.4-6.99-7.4-12.33-7.4c-6.25,0-11.53,4.1-13.32,9.75
				c-1.79-1.51-4.1-2.42-6.62-2.42c-4.57,0-8.44,2.97-9.79,7.09c-0.64-0.19-1.32-0.3-2.02-0.3c-3.77,0-6.84,3.03-6.9,6.79H192.3z"/>
			<path class="st1" d="M105.25,105.17c-21.37,0-38.69-17.32-38.69-38.69c0-14.85,8.38-27.74,20.66-34.23
				c-0.99-0.06-1.98-0.1-2.98-0.1c-24.89,0-45.07,20.18-45.07,45.07c0,24.89,20.18,45.07,45.07,45.07c16.1,0,30.23-8.45,38.2-21.15
				C117.26,103.72,111.43,105.17,105.25,105.17z"/>
			<path class="st1" d="M395.69,66.76c0.2-0.9,0.31-1.83,0.31-2.8c0-7.03-5.7-12.73-12.73-12.73c-2.79,0-5.36,0.9-7.46,2.41
				c-2.55-5.72-8.29-9.71-14.96-9.71c-3.91,0-7.5,1.37-10.32,3.66c-3.33-6.24-9.91-10.49-17.47-10.49
				c-8.86,0-16.35,5.81-18.88,13.83c-2.54-2.14-5.81-3.43-9.39-3.43c-6.47,0-11.96,4.22-13.87,10.05c-0.9-0.27-1.86-0.42-2.86-0.42
				c-5.35,0-9.69,4.3-9.78,9.63H395.69z"/>
		</g>
		<rect y="339.03" class="st2" width="309.45" height="86.66"/>
		<rect x="309.45" y="339.03" class="st3" width="115.75" height="86.66"/>
		<rect x="309.45" y="339.03" class="st4" width="115.75" height="26.25"/>
		<g>
			<g>
				<path class="st3" d="M351.07,273.12c1.64-2.29,2.61-5.1,2.61-8.14c0-7.74-6.27-14.01-14.01-14.01c-0.29,0-0.57,0.01-0.85,0.03
					c1.94-2.41,3.1-5.46,3.1-8.79c0-7.74-6.27-14.01-14.01-14.01c-7.73,0-14.01,6.27-14.01,14.01c0,3.32,1.15,6.36,3.08,8.76
					c-7.66,0.09-13.83,6.32-13.83,14.01c0,2.92,0.9,5.64,2.43,7.89c-7.46,2.06-12.94,8.88-12.94,17c0,9.74,7.89,17.64,17.64,17.64
					c5.14,0,9.78-2.21,13-5.73c3.68,5.06,9.65,8.35,16.39,8.35c11.19,0,20.26-9.07,20.26-20.26
					C359.94,282.9,356.42,276.76,351.07,273.12z"/>
				<path class="st5" d="M340.51,268.8c-0.33-0.29-0.83-0.26-1.12,0.06c-6.93,7.75-10.31,11.64-11.97,13.63v-22.93
					c0-0.44-0.36-0.79-0.79-0.79c-0.44,0-0.79,0.36-0.79,0.79v33.46c-3.44-5.47-7.19-10.45-7.23-10.51
					c-0.27-0.35-0.76-0.42-1.12-0.16c-0.35,0.26-0.42,0.76-0.16,1.11c0.05,0.06,4.7,6.26,8.37,12.38c0.04,0.06,0.08,0.12,0.13,0.16
					v46.03c0,0.44,0.36,0.8,0.79,0.8c0.44,0,0.79-0.36,0.79-0.8v-57.03c0.94-1.32,8.46-9.84,13.15-15.09
					C340.86,269.6,340.83,269.1,340.51,268.8z"/>
			</g>
			<g>
				<path class="st3" d="M425.68,185.03c-1.5-0.45-3.1-0.7-4.75-0.7c-0.34,0-0.67,0.01-1,0.03c2.28-2.83,3.65-6.42,3.65-10.33
					c0-9.1-7.38-16.48-16.48-16.48c-9.1,0-16.48,7.38-16.48,16.48c0,3.9,1.36,7.48,3.62,10.3c-9.01,0.11-16.28,7.44-16.28,16.48
					c0,3.44,1.06,6.64,2.86,9.28c-8.78,2.42-15.22,10.45-15.22,20c0,11.46,9.29,20.75,20.75,20.75c6.05,0,11.5-2.6,15.29-6.74
					c4.33,5.95,11.35,9.83,19.28,9.83c1.63,0,3.21-0.16,4.75-0.47V185.03z"/>
				<path class="st5" d="M421.91,205.31c-0.38-0.35-0.98-0.31-1.32,0.07c-8.15,9.12-12.13,13.69-14.08,16.04v-26.98
					c0-0.52-0.42-0.93-0.94-0.93c-0.52,0-0.93,0.42-0.93,0.93v39.36c-4.05-6.43-8.45-12.3-8.5-12.36c-0.31-0.41-0.9-0.5-1.31-0.18
					c-0.41,0.31-0.49,0.9-0.19,1.31c0.05,0.07,5.53,7.37,9.85,14.56c0.04,0.07,0.09,0.13,0.15,0.19V341.9
					c0,0.52,0.42,0.93,0.93,0.93c0.52,0,0.94-0.42,0.94-0.93V224.38c1.1-1.55,9.95-11.57,15.47-17.75
					C422.33,206.24,422.3,205.65,421.91,205.31z"/>
			</g>
		</g>
	</g>
	<g>
		<g>
			<g>
				<g>
					<g>
						<g>
							<g>
								<path class="st6" d="M251.98,187.67c-7.47-4.72-11.92-7.49-11.97-7.52l-0.01,0.01v4.79c2.01,1.26,5.37,3.36,9.8,6.16
									c1.9,1.21,2.4,1.7,2.4,5.93v9.58h4.08v-9.58C256.29,192.36,255.69,190.01,251.98,187.67z"/>
							</g>
						</g>
						<g>
							<path class="st6" d="M264.41,239.27c0,0.9-0.73,1.63-1.63,1.63h-17.26c-0.9,0-1.63-0.73-1.63-1.63v-37.02
								c0-0.9,0.73-1.63,1.63-1.63h17.26c0.9,0,1.63,0.73,1.63,1.63V239.27z"/>
						</g>
					</g>
				</g>
				<g>
					<g>
						<g>
							<g>
								<path class="st6" d="M68.83,187.67c7.47-4.72,11.92-7.49,11.97-7.52l0.01,0.01v4.79c-2.01,1.26-5.37,3.36-9.79,6.16
									c-1.91,1.21-2.41,1.7-2.41,5.93v9.58h-4.08v-9.58C64.52,192.36,65.12,190.01,68.83,187.67z"/>
							</g>
						</g>
					</g>
					<g>
						<g>
							<path class="st6" d="M56.4,239.27c0,0.9,0.73,1.63,1.62,1.63h17.26c0.9,0,1.63-0.73,1.63-1.63v-37.02
								c0-0.9-0.73-1.63-1.63-1.63H58.03c-0.9,0-1.62,0.73-1.62,1.63V239.27z"/>
						</g>
					</g>
				</g>
			</g>
		</g>
		<g>
			<g>
				<g>
					<path class="st7" d="M85.28,340.16v22.27c0,1.57,1.27,2.85,2.85,2.85h30.12c1.57,0,2.84-1.27,2.84-2.85v-22.27H85.28z"/>
				</g>
				<g>
					<path class="st7" d="M200.02,340.16v22.27c0,1.57,1.27,2.85,2.85,2.85h30.12c1.57,0,2.84-1.27,2.84-2.85v-22.27H200.02z"/>
				</g>
			</g>
		</g>
		<g>
			<path class="st6" d="M241.17,334.4c0,5.15-4.17,9.32-9.32,9.32H89.27c-5.15,0-9.32-4.17-9.32-9.32V171.96
				c0-5.15,4.18-9.33,9.32-9.33h142.58c5.15,0,9.32,4.18,9.32,9.33V334.4z"/>
		</g>
		<g>
			<g>
				<path class="st7" d="M249.54,339.1c0,3.2-2.59,5.79-5.79,5.79H77.36c-3.2,0-5.79-2.59-5.79-5.79v-11.58
					c0-3.2,2.59-5.79,5.79-5.79h166.4c3.2,0,5.79,2.59,5.79,5.79V339.1z"/>
			</g>
		</g>
		<g>
			<g>
				<path class="st1" d="M118.53,311.23c0,1-0.81,1.81-1.81,1.81h-26c-1,0-1.81-0.81-1.81-1.81v-9.75c0-1,0.81-1.81,1.81-1.81h26
					c1,0,1.81,0.81,1.81,1.81V311.23z"/>
			</g>
			<g>
				<g>
					<g>
						<path class="st8" d="M97.71,299.67h-6.98c-1,0-1.81,0.81-1.81,1.81v9.75c0,1,0.81,1.81,1.81,1.81h6.98V299.67z"/>
					</g>
				</g>
			</g>
			<g>
				<path class="st1" d="M232.2,311.23c0,1-0.81,1.81-1.81,1.81h-26c-1,0-1.81-0.81-1.81-1.81v-9.75c0-1,0.81-1.81,1.81-1.81h26
					c1,0,1.81,0.81,1.81,1.81V311.23z"/>
			</g>
			<g>
				<g>
					<path class="st8" d="M223.41,299.67h6.98c1,0,1.81,0.81,1.81,1.81v9.75c0,1-0.81,1.81-1.81,1.81h-6.98V299.67z"/>
				</g>
			</g>
		</g>
		<g>
			<g>
				<g>
					<rect x="81.98" y="193.56" class="st1" width="157.15" height="86.52"/>
				</g>
			</g>
			<g>
				<g>
					<path class="st7" d="M237.1,195.6v82.46H84.02V195.6H237.1 M241.17,191.53H79.94v90.6h161.23V191.53L241.17,191.53z"/>
				</g>
			</g>
		</g>
		<g>
			<line class="st3" x1="160.56" y1="191.53" x2="160.56" y2="282.12"/>
			<rect x="158.52" y="191.53" class="st7" width="4.07" height="90.6"/>
		</g>
		<g>
			<rect x="118.31" y="170.15" class="st1" width="84.49" height="14.76"/>
			<path class="st1" d="M203.82,185.93h-86.53v-16.8h86.53V185.93z"/>
		</g>
		<g>
			<g>
				<rect x="125.33" y="294.63" class="st7" width="70.46" height="2.19"/>
			</g>
			<g>
				<rect x="125.33" y="298.88" class="st7" width="70.46" height="2.19"/>
			</g>
			<g>
				<rect x="125.33" y="303.13" class="st7" width="70.46" height="2.19"/>
			</g>
			<g>
				<rect x="125.33" y="307.38" class="st7" width="70.46" height="2.19"/>
			</g>
			<g>
				<rect x="125.33" y="311.63" class="st7" width="70.46" height="2.19"/>
			</g>
			<g>
				<rect x="125.33" y="315.88" class="st7" width="70.46" height="2.19"/>
			</g>
		</g>
	</g>
	<g>
		<g>
			<g>
				<path class="st9" d="M386.06,304.22c0,1.28-1.03,2.31-2.31,2.31l0,0c-1.28,0-2.31-1.04-2.31-2.31V292.5
					c0-1.28,1.04-2.31,2.31-2.31l0,0c1.28,0,2.31,1.03,2.31,2.31V304.22z"/>
				<path class="st9" d="M392.56,363.68c0,1.79-1.45,3.24-3.24,3.24h-11.15c-1.79,0-3.24-1.45-3.24-3.24v-60.56
					c0-1.79,1.45-3.24,3.24-3.24h11.15c1.79,0,3.24,1.45,3.24,3.24V363.68z"/>
			</g>
			<path class="st10" d="M388.2,287.92c0.96,0.81,1.42,4.46,0.97,6.25c-0.72,2.85-3.17,4.76-4.68,4.17
				c-1.52-0.6-1.57-2.73-1.02-5.32c0.09-0.44-0.04-0.8-0.46-0.32c-0.82,0.97-1.46,1.25-1.76,0.99c-0.46-0.4,1.02-5.19,2.44-5.98
				C384.71,287.14,386.27,286.31,388.2,287.92z"/>
			<g>
				<g>
					<g>
						<path class="st11" d="M386.76,207.71c-1.87-4.56-6.63-8.67-10.91-10.34c0,0-1.9,5.6-1.33,9.01l6.14,37.16
							c0.57,3.41,3.79,5.72,7.2,5.16l0,0c3.41-0.57,5.72-3.79,5.15-7.2C393,241.49,390.01,215.65,386.76,207.71z"/>
					</g>
					<g>
						<path class="st11" d="M393.09,243.15c-0.04-3.46-2.88-6.22-6.33-6.18l0,0c-3.46,0.04-6.23,2.88-6.19,6.33l1.75,44.71
							c0.03,2.17,9.92,2.34,9.9,0.77L393.09,243.15z"/>
					</g>
				</g>
			</g>
		</g>
		<g>
			<path class="st12" d="M341.72,213.34c2.97,1.77,6.1-2.51,7.88-5.48c0,0,4.28-8.94,1.31-10.71l-32.48-15.46
				c-2.97-1.76-6.81-0.79-8.58,2.18l0,0c-1.76,2.97-0.79,6.81,2.18,8.58L341.72,213.34z"/>
			<g>
				<path class="st10" d="M278.29,161.24c0.01-1.92-2.27-3.74-3.76-4.81c-2.39-1.71-6.77-3.93-7.55-2.5c-0.77,1.44,2.91,3.11,5,4.73
					c1.2,0.93,1,3.39-0.79,2.54c-1.39-0.66-1.87-0.26-1.93,0.14c-0.09,0.6,4.14,3.29,5.72,2.98
					C276.12,164.1,278.27,163.75,278.29,161.24z"/>
				<path class="st12" d="M318.53,182.2c2.85,1.96,3.56,5.86,1.6,8.71l0,0c-1.96,2.85-5.86,3.56-8.71,1.6l-36.14-26.39
					c-1.79-1.23,3.59-9.54,4.89-8.64L318.53,182.2z"/>
			</g>
		</g>
		<g>
			<g>
				<path class="st10" d="M358.86,188.27h7.72v8.07c0,1.15-0.48,2.46-4.15,2.46c-2.32,0-3.34-1.1-3.57-2.07V188.27z"/>
				<g>
					<path class="st10" d="M350.34,180.94c0,0.89,0.72,1.61,1.61,1.61c0.9,0,1.61-0.72,1.61-1.61c0-0.89-0.71-1.61-1.61-1.61
						C351.06,179.33,350.34,180.05,350.34,180.94z"/>
					<path class="st10" d="M371.58,180.94c0,0.89,0.73,1.61,1.61,1.61c0.89,0,1.61-0.72,1.61-1.61c0-0.89-0.72-1.61-1.61-1.61
						C372.3,179.33,371.58,180.05,371.58,180.94z"/>
				</g>
				<path class="st10" d="M352.17,182.29c0,5.99,5.13,10.09,10.4,10.09c5.07,0,10.4-4.25,10.4-10.32v-5.43
					c0-5.71-4.66-10.34-10.4-10.34l0,0c-5.75,0-10.4,4.63-10.4,10.34V182.29z"/>
				<g>
					<g>
						<g>
							<g>
								<g>
									<path class="st7" d="M356.89,179.58c0.21,0,0.4,0.07,0.52,0.22c0.11,0.13,0.17,0.3,0.17,0.48c0,0.34-0.24,0.7-0.69,0.7
										c-0.2,0-0.39-0.09-0.52-0.23c-0.11-0.13-0.17-0.3-0.17-0.47C356.2,179.92,356.44,179.58,356.89,179.58z"/>
								</g>
							</g>
							<g>
								<g>
									<path class="st7" d="M368.61,179.58c0.21,0,0.4,0.07,0.52,0.22c0.11,0.13,0.17,0.3,0.17,0.48c0,0.34-0.24,0.7-0.7,0.7
										c-0.21,0-0.39-0.09-0.52-0.23c-0.11-0.13-0.17-0.3-0.17-0.47C367.93,179.92,368.16,179.58,368.61,179.58z"/>
								</g>
							</g>
						</g>
					</g>
					<path class="st1" d="M366.59,185.2c-0.04,1.45-1.63,3.1-3.81,3.08c-2.18,0.02-3.76-1.62-3.8-3.08
						C361.16,187.02,364.39,187.02,366.59,185.2z"/>
					<g>
						<g>
							<g>
								<path class="st7" d="M361.59,184.48c0.08,0,0.15-0.01,0.22-0.01c0.12-0.02,0.22-0.12,0.21-0.24
									c-0.01-0.12-0.11-0.23-0.24-0.21c-0.45,0.04-0.8-0.09-0.84-0.19c-0.01-0.04,0.03-0.2,0.4-0.45
									c1.13-0.76,1.26-3.43,1.27-3.54c0-0.13-0.09-0.23-0.22-0.23c-0.13-0.01-0.23,0.09-0.23,0.21c-0.03,0.71-0.29,2.66-1.07,3.19
									c-0.49,0.33-0.68,0.66-0.57,0.98C360.63,184.33,361.12,184.48,361.59,184.48z"/>
							</g>
						</g>
					</g>
					<g>
						<g>
							<path class="st13" d="M354.31,183.62c0,0.88,1.08,1.58,2.42,1.58c1.34,0,2.41-0.7,2.41-1.58c0-0.88-1.07-1.58-2.41-1.58
								C355.39,182.03,354.31,182.74,354.31,183.62z"/>
						</g>
						<g>
							<path class="st13" d="M366,183.62c0,0.88,1.09,1.58,2.42,1.58c1.33,0,2.41-0.7,2.41-1.58c0-0.88-1.09-1.58-2.41-1.58
								C367.08,182.03,366,182.74,366,183.62z"/>
						</g>
					</g>
				</g>
			</g>
			<path class="st14" d="M370.68,169.21c0,0-5.07-6.44-14.18-3.24c-8.22,2.9-4.67,14.67-4.67,14.67s3.07-1.05,7.95-6.06
				c0.52-0.55-0.49,4.54,0.61,4.54c6.09,0,5.71-5.35,6-5.35c2.09,0,4.39,1.43,4.88,3.53c0.28,1.15,1.21,4.71,1.21,4.71
				s1.21,0.28,1.82-4.34C374.92,173.08,374.99,167.55,370.68,169.21z"/>
		</g>
		<g>
			<path class="st12" d="M340.25,208.56c0-8.68,9.92-14.01,18.15-14.47l4.68,4.93l3.57-5c8.85,1.83,17.1,5.2,17.1,13.76
				c0,19.24,0,74.29,0,74.29h-43.5C340.25,282.07,340.25,225.23,340.25,208.56z"/>
			<g>
				<path class="st15" d="M361.11,282.07h3.27v-83.35c-1.09-0.05-2.19-0.07-3.27-0.07V282.07z"/>
				<g>
					<path class="st1" d="M363.49,210.78c0,0.41-0.33,0.75-0.75,0.75c-0.41,0-0.75-0.33-0.75-0.75c0-0.41,0.33-0.75,0.75-0.75
						C363.16,210.03,363.49,210.37,363.49,210.78z"/>
					<path class="st1" d="M363.49,217.65c0,0.41-0.33,0.75-0.75,0.75c-0.41,0-0.75-0.33-0.75-0.75c0-0.41,0.33-0.75,0.75-0.75
						C363.16,216.9,363.49,217.23,363.49,217.65z"/>
					<path class="st1" d="M363.49,224.51c0,0.41-0.33,0.75-0.75,0.75c-0.41,0-0.75-0.34-0.75-0.75c0-0.41,0.33-0.75,0.75-0.75
						C363.16,223.77,363.49,224.1,363.49,224.51z"/>
					<path class="st1" d="M363.49,231.38c0,0.41-0.33,0.75-0.75,0.75c-0.41,0-0.75-0.34-0.75-0.75c0-0.41,0.33-0.75,0.75-0.75
						C363.16,230.63,363.49,230.97,363.49,231.38z"/>
					<path class="st1" d="M363.49,238.25c0,0.41-0.33,0.75-0.75,0.75c-0.41,0-0.75-0.33-0.75-0.75c0-0.41,0.33-0.75,0.75-0.75
						C363.16,237.5,363.49,237.84,363.49,238.25z"/>
					<path class="st1" d="M363.49,245.12c0,0.41-0.33,0.75-0.75,0.75c-0.41,0-0.75-0.33-0.75-0.75c0-0.41,0.33-0.75,0.75-0.75
						C363.16,244.37,363.49,244.7,363.49,245.12z"/>
					<path class="st1" d="M363.49,251.98c0,0.41-0.33,0.75-0.75,0.75c-0.41,0-0.75-0.33-0.75-0.75c0-0.41,0.33-0.75,0.75-0.75
						C363.16,251.24,363.49,251.57,363.49,251.98z"/>
					<path class="st1" d="M363.49,258.85c0,0.41-0.33,0.75-0.75,0.75c-0.41,0-0.75-0.33-0.75-0.75c0-0.41,0.33-0.75,0.75-0.75
						C363.16,258.1,363.49,258.44,363.49,258.85z"/>
					<path class="st1" d="M363.49,265.72c0,0.41-0.33,0.75-0.75,0.75c-0.41,0-0.75-0.33-0.75-0.75c0-0.41,0.33-0.75,0.75-0.75
						C363.16,264.97,363.49,265.31,363.49,265.72z"/>
					<path class="st1" d="M363.49,272.59c0,0.41-0.33,0.75-0.75,0.75c-0.41,0-0.75-0.33-0.75-0.75c0-0.41,0.33-0.75,0.75-0.75
						C363.16,271.84,363.49,272.17,363.49,272.59z"/>
				</g>
				<g>
					<polygon class="st3" points="367.96,264.58 362.96,270.38 357.96,264.58 361.08,201.7 364.85,201.7 					"/>
					<polygon class="st16" points="361.08,201.7 360.94,203.72 362.96,205.78 364.99,203.72 364.85,201.7 					"/>
					<polygon class="st3" points="362.96,204.84 359.88,201.7 362.96,198.57 366.05,201.7 					"/>
				</g>
				<g>
					<g>
						<g>
							<g>
								<polygon class="st15" points="369.24,194.57 364.56,200.19 362.91,198.61 366.65,194.02 								"/>
							</g>
						</g>
					</g>
					<g>
						<g>
							<g>
								<polygon class="st15" points="356.21,194.26 361.3,200.26 362.98,198.61 358.84,194.02 								"/>
							</g>
						</g>
					</g>
				</g>
			</g>
		</g>
		<g>
			<g>
				<g>
					<path class="st15" d="M376.64,413.11c-2.6-0.48-3.59-0.69-4.51-1.06c-1.37-0.54-1.42-1.72-1.12-4.76
						c0.08-0.89,0.9-4.84,2.05-10.85h-8.41l0.33,20.07c0,0,8.45,0,11.14,0C378.3,416.52,379.23,413.59,376.64,413.11z"/>
				</g>
			</g>
			<g>
				<g>
					<g>
						<g>
							<path class="st7" d="M377.09,413.11c-2.82-0.89-3.27-0.89-4.19-1.25c-0.61-0.25-1.73-0.6-1.73-0.6s-0.96,0.94-3.25,0.94
								c-0.6,0-1.98-0.05-2.38-0.43c-0.28-0.26-0.66-0.29-0.66-0.29l0.1,5.05c0,0,8.45,0,11.14,0
								C378.3,416.52,379.6,413.9,377.09,413.11z"/>
						</g>
					</g>
				</g>
			</g>
		</g>
		<g>
			<g>
				<g>
					<path class="st15" d="M346.83,413.11c2.59-0.48,3.59-0.69,4.51-1.06c1.37-0.54,1.42-1.72,1.12-4.76
						c-0.09-0.89-0.91-4.84-2.06-10.85h8.41l-0.33,20.07c0,0-8.45,0-11.14,0C345.18,416.52,344.24,413.59,346.83,413.11z"/>
				</g>
			</g>
		</g>
		<polygon class="st7" points="383.76,282.07 340.23,282.07 349.82,409.57 360.74,409.57 363.09,291.12 363.56,409.57 
			376.21,409.57 		"/>
		<g>
			<g>
				<g>
					<g>
						<path class="st7" d="M346.47,413.11c2.82-0.89,3.27-0.89,4.19-1.25c0.61-0.25,1.73-0.6,1.73-0.6s0.96,0.94,3.25,0.94
							c0.6,0,1.98-0.05,2.38-0.43c0.28-0.26,0.66-0.29,0.66-0.29l-0.1,5.05c0,0-8.45,0-11.14,0
							C345.27,416.52,343.97,413.9,346.47,413.11z"/>
					</g>
				</g>
			</g>
		</g>
	</g>
</g>
</svg>
