<?xml version="1.0" encoding="utf-8"?>
<!-- Generator: Adobe Illustrator 27.3.1, SVG Export Plug-In . SVG Version: 6.00 Build 0)  -->
<svg version="1.1" xmlns="http://www.w3.org/2000/svg" xmlns:xlink="http://www.w3.org/1999/xlink" x="0px" y="0px"
	 viewBox="0 0 750 500" style="enable-background:new 0 0 750 500;" xml:space="preserve">
<style type="text/css">
	.st0{fill:#E0E0E0;}
	.st1{fill:#EBEBEB;}
	.st2{fill:#E6E6E6;}
	.st3{fill:#F5F5F5;}
	.st4{fill:#FAFAFA;}
	.st5{display:none;}
	.st6{display:inline;}
	.st7{fill:#407BFF;}
	.st8{opacity:0.9;fill:#FFFFFF;}
	.st9{opacity:0.5;}
	.st10{fill:#263238;}
	.st11{opacity:0.3;fill:#FFFFFF;}
	.st12{opacity:0.3;}
	.st13{opacity:0.5;fill:#FFFFFF;}
	.st14{fill:#FFFFFF;}
	.st15{opacity:0.2;}
	.st16{opacity:0.4;fill:#FFFFFF;}
</style>
<g id="Background_complete">
	<g>
		<g>
			<g>
				<g>
					<g>
						<g>
							<path class="st0" d="M673.73,319.39H492.99c-3.23,0-5.86-2.63-5.86-5.86V50.25c0-3.23,2.63-5.86,5.86-5.86h180.75
								c3.23,0,5.86,2.63,5.86,5.86v263.27C679.6,316.76,676.97,319.39,673.73,319.39z M492.99,44.64c-3.09,0-5.61,2.52-5.61,5.61
								v263.27c0,3.09,2.52,5.61,5.61,5.61h180.75c3.09,0,5.61-2.52,5.61-5.61V50.25c0-3.09-2.52-5.61-5.61-5.61H492.99z"/>
						</g>
					</g>
					<g>
						<g>
							<path class="st0" d="M465.31,319.39H284.56c-3.23,0-5.86-2.63-5.86-5.86V50.25c0-3.23,2.63-5.86,5.86-5.86h180.75
								c3.23,0,5.86,2.63,5.86,5.86v263.27C471.17,316.76,468.54,319.39,465.31,319.39z M284.56,44.64c-3.09,0-5.61,2.52-5.61,5.61
								v263.27c0,3.09,2.52,5.61,5.61,5.61h180.75c3.09,0,5.61-2.52,5.61-5.61V50.25c0-3.09-2.52-5.61-5.61-5.61H284.56z"/>
						</g>
					</g>
				</g>
				<g>
					<g>
						<g>
							<path class="st0" d="M257.01,319.39H76.27c-3.23,0-5.86-2.63-5.86-5.86V50.25c0-3.23,2.63-5.86,5.86-5.86h180.75
								c3.23,0,5.86,2.63,5.86,5.86v263.27C262.87,316.76,260.24,319.39,257.01,319.39z M76.27,44.64c-3.09,0-5.61,2.52-5.61,5.61
								v263.27c0,3.09,2.52,5.61,5.61,5.61h180.75c3.09,0,5.61-2.52,5.61-5.61V50.25c0-3.09-2.52-5.61-5.61-5.61H76.27z"/>
						</g>
					</g>
				</g>
			</g>
			<g>
				<g>
					<rect y="380.46" class="st0" width="750" height="0.12"/>
				</g>
			</g>
		</g>
		<g>
			<rect x="653.63" y="409.83" class="st1" width="55.73" height="0.42"/>
			<rect x="495.04" y="414.4" class="st1" width="14.63" height="0.42"/>
			<rect x="40.64" y="397.03" class="st1" width="72.67" height="0.42"/>
			<rect x="128.3" y="397.03" class="st1" width="10.66" height="0.42"/>
			<rect x="173.59" y="404.14" class="st1" width="157.61" height="0.42"/>
		</g>
	</g>
	<g>
		<g>
			<path class="st2" d="M332.31,77.26c-2.14-1.62-5.26-1.8-7.58-0.44c-3.07-6.21-11.63-8.95-17.73-5.68
				c-1.59-6.69-8.18-11.83-15.06-11.75c-6.87,0.08-13.34,5.38-14.77,12.11c-0.23,1.07-0.38,2.24-1.14,3.02
				c-1.24,1.27-3.31,0.84-5.08,0.7c-5.57-0.43-11.17,3.47-12.68,8.85l76.67-0.28C335.61,81.2,334.45,78.88,332.31,77.26z"/>
		</g>
	</g>
	<g>
		<g>
			<path class="st2" d="M411.35,111.77c-1.36-1.03-3.34-1.14-4.8-0.28c-1.95-3.94-7.37-5.67-11.25-3.6
				c-1.01-4.24-5.19-7.5-9.55-7.45c-4.36,0.05-8.46,3.41-9.37,7.68c-0.14,0.68-0.24,1.42-0.72,1.92c-0.79,0.8-2.1,0.53-3.22,0.45
				c-3.53-0.28-7.08,2.2-8.04,5.61l48.62-0.18C413.44,114.27,412.7,112.8,411.35,111.77z"/>
		</g>
	</g>
	<g>
		<g>
			<path class="st3" d="M553.63,67.42c-1.36-1.03-3.34-1.14-4.8-0.28c-1.95-3.94-7.37-5.67-11.25-3.6c-1.01-4.24-5.19-7.5-9.55-7.45
				c-4.36,0.05-8.46,3.41-9.37,7.68c-0.14,0.68-0.24,1.42-0.72,1.91c-0.79,0.8-2.1,0.53-3.22,0.45c-3.53-0.28-7.08,2.2-8.04,5.61
				l48.62-0.18C555.72,69.91,554.99,68.44,553.63,67.42z"/>
		</g>
	</g>
	<g>
		<g>
			<path class="st2" d="M119.17,94.65c-2.14-1.62-5.26-1.8-7.58-0.44c-3.07-6.21-11.63-8.95-17.73-5.68
				c-1.59-6.69-8.18-11.83-15.06-11.75c-6.87,0.08-13.34,5.38-14.77,12.1c-0.23,1.07-0.38,2.24-1.14,3.02
				c-1.24,1.27-3.31,0.84-5.08,0.7c-5.57-0.43-11.17,3.47-12.68,8.85l76.67-0.28C122.47,98.59,121.31,96.27,119.17,94.65z"/>
		</g>
	</g>
	<g>
		<g>
			<path class="st3" d="M215.25,134.45c-1.45-1.1-3.57-1.22-5.14-0.3c-2.08-4.21-7.89-6.07-12.03-3.85
				c-1.08-4.54-5.55-8.03-10.22-7.97c-4.66,0.06-9.05,3.65-10.02,8.21c-0.15,0.73-0.26,1.52-0.78,2.05
				c-0.84,0.86-2.25,0.57-3.45,0.48c-3.78-0.29-7.58,2.36-8.61,6.01l52.03-0.19C217.49,137.12,216.7,135.55,215.25,134.45z"/>
		</g>
	</g>
	<g>
		<g>
			<path class="st3" d="M163.12,222.36c-1.45-1.1-3.57-1.22-5.14-0.3c-2.08-4.21-7.89-6.07-12.03-3.85
				c-1.08-4.54-5.55-8.03-10.22-7.97c-4.67,0.06-9.05,3.65-10.02,8.21c-0.15,0.73-0.26,1.52-0.78,2.05
				c-0.84,0.86-2.25,0.57-3.45,0.48c-3.78-0.29-7.58,2.36-8.61,6.01l52.03-0.19C165.36,225.03,164.58,223.46,163.12,222.36z"/>
		</g>
	</g>
	<g>
		<g>
			<path class="st3" d="M700.1,109.66c-1.45-1.1-3.57-1.22-5.14-0.3c-2.08-4.21-7.89-6.07-12.03-3.85
				c-1.08-4.54-5.55-8.03-10.22-7.97c-4.66,0.06-9.05,3.65-10.02,8.21c-0.15,0.73-0.26,1.52-0.78,2.05
				c-0.84,0.86-2.25,0.57-3.45,0.48c-3.78-0.29-7.58,2.36-8.61,6.01l52.03-0.19C702.34,112.33,701.55,110.76,700.1,109.66z"/>
		</g>
	</g>
	<g id="freepik--background-complete--inject-481_00000094613527366731375080000002593904380488357262_">
		<polygon class="st1" points="667.09,222.98 666.25,178.76 640.36,178.76 640.36,188.85 621.3,188.85 621.3,78.39 584.65,78.39 
			584.65,121.87 573.66,121.87 573.66,100.16 545.06,100.16 545.06,206.03 504.74,206.03 504.74,168.63 479.46,168.63 479.46,87.52 
			448.26,87.52 448.26,141.59 418.93,141.59 418.93,258.07 396.21,258.07 396.21,201.35 372.75,201.35 372.75,164.85 347.83,164.85 
			347.83,136.83 320.02,150.88 320.02,225.84 290.7,225.84 290.7,210.38 251.52,210.38 251.52,319.04 707.49,319.25 707.49,222.98 
					"/>
		<path class="st2" d="M374.66,319.09V157.43h-31.16v161.82C353.37,319.02,374.66,319.09,374.66,319.09z"/>
		<path class="st4" d="M346.29,319.25v-88.91h-64.12v88.71L346.29,319.25z"/>
		<path class="st0" d="M424.19,319.12V188.59h-36.32V319.1L424.19,319.12z"/>
		<rect x="390.63" y="193.71" class="st4" width="4.4" height="8.7"/>
		<rect x="399.43" y="193.71" class="st4" width="4.4" height="8.7"/>
		<rect x="408.24" y="193.71" class="st4" width="4.4" height="8.7"/>
		<rect x="417.04" y="193.71" class="st4" width="4.4" height="8.7"/>
		<rect x="390.63" y="208.29" class="st4" width="4.4" height="8.7"/>
		<rect x="399.43" y="208.29" class="st4" width="4.4" height="8.7"/>
		<rect x="408.24" y="208.29" class="st4" width="4.4" height="8.7"/>
		<rect x="417.04" y="208.29" class="st4" width="4.4" height="8.7"/>
		<rect x="390.63" y="222.87" class="st4" width="4.4" height="8.7"/>
		<rect x="399.43" y="222.87" class="st4" width="4.4" height="8.7"/>
		<rect x="408.24" y="222.87" class="st4" width="4.4" height="8.7"/>
		<rect x="417.04" y="222.87" class="st4" width="4.4" height="8.7"/>
		<rect x="390.63" y="237.45" class="st4" width="4.4" height="8.7"/>
		<rect x="399.43" y="237.45" class="st4" width="4.4" height="8.7"/>
		<rect x="408.24" y="237.45" class="st4" width="4.4" height="8.7"/>
		<rect x="417.04" y="237.45" class="st4" width="4.4" height="8.7"/>
		<rect x="390.63" y="252.02" class="st4" width="4.4" height="8.7"/>
		<rect x="399.43" y="252.02" class="st4" width="4.4" height="8.7"/>
		<rect x="408.24" y="252.02" class="st4" width="4.4" height="8.7"/>
		<rect x="417.04" y="252.02" class="st4" width="4.4" height="8.7"/>
		<rect x="390.63" y="266.6" class="st4" width="4.4" height="8.7"/>
		<rect x="399.43" y="266.6" class="st4" width="4.4" height="8.7"/>
		<rect x="408.24" y="266.6" class="st4" width="4.4" height="8.7"/>
		<rect x="417.04" y="266.6" class="st4" width="4.4" height="8.7"/>
		<rect x="390.63" y="281.18" class="st4" width="4.4" height="8.7"/>
		<rect x="399.43" y="281.18" class="st4" width="4.4" height="8.7"/>
		<rect x="408.24" y="281.18" class="st4" width="4.4" height="8.7"/>
		<rect x="417.04" y="281.18" class="st4" width="4.4" height="8.7"/>
		<rect x="390.63" y="295.76" class="st4" width="4.4" height="8.7"/>
		<rect x="399.43" y="295.76" class="st4" width="4.4" height="8.7"/>
		<rect x="408.24" y="295.76" class="st4" width="4.4" height="8.7"/>
		<rect x="417.04" y="295.76" class="st4" width="4.4" height="8.7"/>
		<path class="st3" d="M550.41,319.18V170H475.1v149.22C475.1,319.23,549.84,319.25,550.41,319.18z"/>
		<rect x="480.76" y="175.95" class="st2" width="9.13" height="10.02"/>
		<rect x="499.03" y="175.95" class="st2" width="9.13" height="10.02"/>
		<rect x="517.29" y="175.95" class="st2" width="9.13" height="10.02"/>
		<rect x="535.56" y="175.95" class="st2" width="9.13" height="10.02"/>
		<rect x="480.76" y="192.75" class="st2" width="9.13" height="10.02"/>
		<rect x="499.03" y="192.75" class="st2" width="9.13" height="10.02"/>
		<rect x="517.29" y="192.75" class="st2" width="9.13" height="10.02"/>
		<rect x="535.56" y="192.75" class="st2" width="9.13" height="10.02"/>
		<rect x="480.76" y="209.55" class="st2" width="9.13" height="10.02"/>
		<rect x="499.03" y="209.55" class="st2" width="9.13" height="10.02"/>
		<rect x="517.29" y="209.55" class="st2" width="9.13" height="10.02"/>
		<rect x="535.56" y="209.55" class="st2" width="9.13" height="10.02"/>
		<rect x="480.76" y="226.34" class="st2" width="9.13" height="10.02"/>
		<rect x="499.03" y="226.34" class="st2" width="9.13" height="10.02"/>
		<rect x="517.29" y="226.34" class="st2" width="9.13" height="10.02"/>
		<rect x="535.56" y="226.34" class="st2" width="9.13" height="10.02"/>
		<rect x="480.76" y="243.15" class="st2" width="9.13" height="10.02"/>
		<rect x="499.03" y="243.15" class="st2" width="9.13" height="10.02"/>
		<rect x="517.29" y="243.15" class="st2" width="9.13" height="10.02"/>
		<rect x="535.56" y="243.15" class="st2" width="9.13" height="10.02"/>
		<rect x="480.76" y="259.94" class="st2" width="9.13" height="10.02"/>
		<rect x="499.03" y="259.94" class="st2" width="9.13" height="10.02"/>
		<rect x="517.29" y="259.94" class="st2" width="9.13" height="10.02"/>
		<rect x="535.56" y="259.94" class="st2" width="9.13" height="10.02"/>
		<rect x="480.76" y="276.75" class="st2" width="9.13" height="10.02"/>
		<rect x="499.03" y="276.75" class="st2" width="9.13" height="10.02"/>
		<rect x="517.29" y="276.75" class="st2" width="9.13" height="10.02"/>
		<rect x="535.56" y="276.75" class="st2" width="9.13" height="10.02"/>
		<rect x="480.76" y="293.55" class="st2" width="9.13" height="10.02"/>
		<rect x="499.03" y="293.55" class="st2" width="9.13" height="10.02"/>
		<rect x="517.29" y="293.55" class="st2" width="9.13" height="10.02"/>
		<rect x="535.56" y="293.55" class="st2" width="9.13" height="10.02"/>
		<rect x="349.25" y="168.42" class="st4" width="8.41" height="9.23"/>
		<rect x="349.25" y="183.9" class="st4" width="8.41" height="9.23"/>
		<rect x="349.25" y="199.38" class="st4" width="8.41" height="9.23"/>
		<rect x="349.25" y="214.86" class="st4" width="8.41" height="9.23"/>
		<rect x="349.25" y="230.34" class="st4" width="8.41" height="9.23"/>
		<rect x="349.25" y="245.82" class="st4" width="8.41" height="9.23"/>
		<rect x="349.25" y="261.3" class="st4" width="8.41" height="9.23"/>
		<rect x="349.25" y="276.79" class="st4" width="8.41" height="9.23"/>
		<rect x="360.5" y="168.42" class="st4" width="8.41" height="9.23"/>
		<rect x="360.5" y="183.9" class="st4" width="8.41" height="9.23"/>
		<rect x="360.5" y="199.38" class="st4" width="8.41" height="9.23"/>
		<rect x="360.5" y="214.86" class="st4" width="8.41" height="9.23"/>
		<rect x="360.5" y="230.34" class="st4" width="8.41" height="9.23"/>
		<rect x="360.5" y="245.82" class="st4" width="8.41" height="9.23"/>
		<rect x="360.5" y="261.3" class="st4" width="8.41" height="9.23"/>
		<rect x="360.5" y="276.79" class="st4" width="8.41" height="9.23"/>
		<rect x="455.4" y="98.25" class="st4" width="9.13" height="10.02"/>
		<rect x="455.4" y="115.05" class="st4" width="9.13" height="10.02"/>
		<rect x="455.4" y="130.7" class="st4" width="9.13" height="10.02"/>
		<rect x="455.4" y="147.49" class="st4" width="9.13" height="10.02"/>
		<rect x="455.4" y="164.29" class="st4" width="9.13" height="10.02"/>
		<rect x="455.4" y="181.09" class="st4" width="9.13" height="10.02"/>
		<rect x="455.4" y="197.89" class="st4" width="9.13" height="10.02"/>
		<rect x="455.4" y="214.7" class="st4" width="9.13" height="10.02"/>
		<rect x="592.54" y="83.69" class="st4" width="9.13" height="10.02"/>
		<rect x="592.54" y="100.48" class="st4" width="9.13" height="10.02"/>
		<rect x="592.54" y="117.29" class="st4" width="9.13" height="10.02"/>
		<rect x="592.54" y="134.08" class="st4" width="9.13" height="10.02"/>
		<rect x="592.54" y="150.89" class="st4" width="9.13" height="10.02"/>
		<rect x="592.54" y="167.68" class="st4" width="9.13" height="10.02"/>
		<rect x="592.54" y="184.49" class="st4" width="9.13" height="10.02"/>
		<rect x="592.54" y="201.28" class="st4" width="9.13" height="10.02"/>
		<rect x="612.1" y="160.86" class="st2" width="54.99" height="158.39"/>
		<rect x="620.23" y="168.67" class="st4" width="16.12" height="10.02"/>
		<rect x="620.23" y="185.48" class="st4" width="16.12" height="10.02"/>
		<rect x="620.23" y="202.27" class="st4" width="16.12" height="10.02"/>
		<rect x="620.23" y="219.08" class="st4" width="16.12" height="10.02"/>
		<rect x="620.23" y="235.87" class="st4" width="16.12" height="10.02"/>
		<rect x="620.23" y="252.67" class="st4" width="16.12" height="10.02"/>
		<rect x="620.23" y="269.47" class="st4" width="16.12" height="10.02"/>
		<rect x="620.23" y="286.27" class="st4" width="16.12" height="10.02"/>
		<rect x="641.8" y="168.67" class="st4" width="16.12" height="10.02"/>
		<rect x="641.8" y="185.48" class="st4" width="16.12" height="10.02"/>
		<rect x="641.8" y="202.27" class="st4" width="16.12" height="10.02"/>
		<rect x="641.8" y="219.08" class="st4" width="16.12" height="10.02"/>
		<rect x="641.8" y="235.87" class="st4" width="16.12" height="10.02"/>
		<rect x="641.8" y="252.67" class="st4" width="16.12" height="10.02"/>
		<rect x="641.8" y="269.47" class="st4" width="16.12" height="10.02"/>
		<rect x="641.8" y="286.27" class="st4" width="16.12" height="10.02"/>
		<path class="st0" d="M582.11,319.19V209.55h-23.98v109.63L582.11,319.19z"/>
		<rect x="559.95" y="213.99" class="st4" width="2.91" height="7.47"/>
		<rect x="565.77" y="213.99" class="st4" width="2.91" height="7.47"/>
		<rect x="571.57" y="213.99" class="st4" width="2.91" height="7.47"/>
		<rect x="577.39" y="213.99" class="st4" width="2.91" height="7.47"/>
		<rect x="559.95" y="226.51" class="st4" width="2.91" height="7.47"/>
		<rect x="565.77" y="226.51" class="st4" width="2.91" height="7.47"/>
		<rect x="571.57" y="226.51" class="st4" width="2.91" height="7.47"/>
		<rect x="577.39" y="226.51" class="st4" width="2.91" height="7.47"/>
		<rect x="559.95" y="239.03" class="st4" width="2.91" height="7.47"/>
		<rect x="565.77" y="239.03" class="st4" width="2.91" height="7.47"/>
		<rect x="571.57" y="239.03" class="st4" width="2.91" height="7.47"/>
		<rect x="577.39" y="239.03" class="st4" width="2.91" height="7.47"/>
		<rect x="559.95" y="251.56" class="st4" width="2.91" height="7.47"/>
		<rect x="565.77" y="251.56" class="st4" width="2.91" height="7.47"/>
		<rect x="571.57" y="251.56" class="st4" width="2.91" height="7.47"/>
		<rect x="577.39" y="251.56" class="st4" width="2.91" height="7.47"/>
		<rect x="559.95" y="264.09" class="st4" width="2.91" height="7.47"/>
		<rect x="565.77" y="264.09" class="st4" width="2.91" height="7.47"/>
		<rect x="571.57" y="264.09" class="st4" width="2.91" height="7.47"/>
		<rect x="577.39" y="264.09" class="st4" width="2.91" height="7.47"/>
		<rect x="559.95" y="276.62" class="st4" width="2.91" height="7.47"/>
		<rect x="565.77" y="276.62" class="st4" width="2.91" height="7.47"/>
		<rect x="571.57" y="276.62" class="st4" width="2.91" height="7.47"/>
		<rect x="577.39" y="276.62" class="st4" width="2.91" height="7.47"/>
		<rect x="559.95" y="289.14" class="st4" width="2.91" height="7.47"/>
		<rect x="565.77" y="289.14" class="st4" width="2.91" height="7.47"/>
		<rect x="571.57" y="289.14" class="st4" width="2.91" height="7.47"/>
		<rect x="577.39" y="289.14" class="st4" width="2.91" height="7.47"/>
		<rect x="559.95" y="301.67" class="st4" width="2.91" height="7.47"/>
		<rect x="565.77" y="301.67" class="st4" width="2.91" height="7.47"/>
		<rect x="571.57" y="301.67" class="st4" width="2.91" height="7.47"/>
		<rect x="577.39" y="301.67" class="st4" width="2.91" height="7.47"/>
		<rect x="287.02" y="234.05" class="st2" width="7.77" height="6.27"/>
		<rect x="302.57" y="234.05" class="st2" width="7.77" height="6.27"/>
		<rect x="318.11" y="234.05" class="st2" width="7.77" height="6.27"/>
		<rect x="333.66" y="234.05" class="st2" width="7.77" height="6.27"/>
		<rect x="287.02" y="244.56" class="st2" width="7.77" height="6.27"/>
		<rect x="302.57" y="244.56" class="st2" width="7.77" height="6.27"/>
		<rect x="318.11" y="244.56" class="st2" width="7.77" height="6.27"/>
		<rect x="333.66" y="244.56" class="st2" width="7.77" height="6.27"/>
		<rect x="287.02" y="255.06" class="st2" width="7.77" height="6.27"/>
		<rect x="302.57" y="255.06" class="st2" width="7.77" height="6.27"/>
		<rect x="318.11" y="255.06" class="st2" width="7.77" height="6.27"/>
		<rect x="333.66" y="255.06" class="st2" width="7.77" height="6.27"/>
		<rect x="287.02" y="265.57" class="st2" width="7.77" height="6.27"/>
		<rect x="302.57" y="265.57" class="st2" width="7.77" height="6.27"/>
		<rect x="318.11" y="265.57" class="st2" width="7.77" height="6.27"/>
		<rect x="333.66" y="265.57" class="st2" width="7.77" height="6.27"/>
		<rect x="287.02" y="276.06" class="st2" width="7.77" height="6.27"/>
		<rect x="302.57" y="276.06" class="st2" width="7.77" height="6.27"/>
		<rect x="318.11" y="276.06" class="st2" width="7.77" height="6.27"/>
		<rect x="333.66" y="276.06" class="st2" width="7.77" height="6.27"/>
		<rect x="287.02" y="286.57" class="st2" width="7.77" height="6.27"/>
		<rect x="302.57" y="286.57" class="st2" width="7.77" height="6.27"/>
		<rect x="318.11" y="286.57" class="st2" width="7.77" height="6.27"/>
		<rect x="333.66" y="286.57" class="st2" width="7.77" height="6.27"/>
		<rect x="287.02" y="297.07" class="st2" width="7.77" height="6.27"/>
		<rect x="302.57" y="297.07" class="st2" width="7.77" height="6.27"/>
		<rect x="318.11" y="297.07" class="st2" width="7.77" height="6.27"/>
		<rect x="333.66" y="297.07" class="st2" width="7.77" height="6.27"/>
	</g>
	<g id="freepik--background-complete--inject-481_00000044164159831858253420000007352219913334283426_">
		<g>
			<path class="st0" d="M258.88,319.15V119.81h55.47v199.31L258.88,319.15z"/>
			<rect x="303.42" y="127.62" class="st4" width="6.72" height="13.28"/>
			<rect x="289.97" y="127.62" class="st4" width="6.72" height="13.28"/>
			<rect x="276.52" y="127.62" class="st4" width="6.72" height="13.28"/>
			<rect x="263.08" y="127.62" class="st4" width="6.72" height="13.28"/>
			<rect x="303.42" y="149.9" class="st4" width="6.72" height="13.28"/>
			<rect x="289.97" y="149.9" class="st4" width="6.72" height="13.28"/>
			<rect x="276.52" y="149.9" class="st4" width="6.72" height="13.28"/>
			<rect x="263.08" y="149.9" class="st4" width="6.72" height="13.28"/>
			<rect x="303.42" y="172.16" class="st4" width="6.72" height="13.28"/>
			<rect x="289.97" y="172.16" class="st4" width="6.72" height="13.28"/>
			<rect x="276.52" y="172.16" class="st4" width="6.72" height="13.28"/>
			<rect x="263.08" y="172.16" class="st4" width="6.72" height="13.28"/>
			<rect x="303.42" y="194.42" class="st4" width="6.72" height="13.28"/>
			<rect x="289.97" y="194.42" class="st4" width="6.72" height="13.28"/>
			<rect x="276.52" y="194.42" class="st4" width="6.72" height="13.28"/>
			<rect x="263.08" y="194.42" class="st4" width="6.72" height="13.28"/>
			<rect x="303.42" y="216.68" class="st4" width="6.72" height="13.28"/>
			<rect x="289.97" y="216.68" class="st4" width="6.72" height="13.28"/>
			<rect x="276.52" y="216.68" class="st4" width="6.72" height="13.28"/>
			<rect x="263.08" y="216.68" class="st4" width="6.72" height="13.28"/>
			<rect x="303.42" y="238.94" class="st4" width="6.72" height="13.28"/>
			<rect x="289.97" y="238.94" class="st4" width="6.72" height="13.28"/>
			<rect x="276.52" y="238.94" class="st4" width="6.72" height="13.28"/>
			<rect x="263.08" y="238.94" class="st4" width="6.72" height="13.28"/>
			<rect x="303.42" y="261.2" class="st4" width="6.72" height="13.28"/>
			<rect x="289.97" y="261.2" class="st4" width="6.72" height="13.28"/>
			<rect x="276.52" y="261.2" class="st4" width="6.72" height="13.28"/>
			<rect x="263.08" y="261.2" class="st4" width="6.72" height="13.28"/>
			<rect x="303.42" y="283.48" class="st4" width="6.72" height="13.28"/>
			<rect x="289.97" y="283.48" class="st4" width="6.72" height="13.28"/>
			<rect x="276.52" y="283.48" class="st4" width="6.72" height="13.28"/>
			<rect x="263.08" y="283.48" class="st4" width="6.72" height="13.28"/>
		</g>
		<g>
			<path class="st3" d="M180.35,319.18V170h75.31v149.22C255.66,319.23,180.93,319.25,180.35,319.18z"/>
			<rect x="240.88" y="175.95" class="st2" width="9.13" height="10.02"/>
			<rect x="222.61" y="175.95" class="st2" width="9.13" height="10.02"/>
			<rect x="204.35" y="175.95" class="st2" width="9.13" height="10.02"/>
			<rect x="186.07" y="175.95" class="st2" width="9.13" height="10.02"/>
			<rect x="240.88" y="192.75" class="st2" width="9.13" height="10.02"/>
			<rect x="222.61" y="192.75" class="st2" width="9.13" height="10.02"/>
			<rect x="204.35" y="192.75" class="st2" width="9.13" height="10.02"/>
			<rect x="186.07" y="192.75" class="st2" width="9.13" height="10.02"/>
			<rect x="240.88" y="209.55" class="st2" width="9.13" height="10.02"/>
			<rect x="222.61" y="209.55" class="st2" width="9.13" height="10.02"/>
			<rect x="204.35" y="209.55" class="st2" width="9.13" height="10.02"/>
			<rect x="186.07" y="209.55" class="st2" width="9.13" height="10.02"/>
			<rect x="240.88" y="226.34" class="st2" width="9.13" height="10.02"/>
			<rect x="222.61" y="226.34" class="st2" width="9.13" height="10.02"/>
			<rect x="204.35" y="226.34" class="st2" width="9.13" height="10.02"/>
			<rect x="186.07" y="226.34" class="st2" width="9.13" height="10.02"/>
			<rect x="240.88" y="243.15" class="st2" width="9.13" height="10.02"/>
			<rect x="222.61" y="243.15" class="st2" width="9.13" height="10.02"/>
			<rect x="204.35" y="243.15" class="st2" width="9.13" height="10.02"/>
			<rect x="186.07" y="243.15" class="st2" width="9.13" height="10.02"/>
			<rect x="240.88" y="259.94" class="st2" width="9.13" height="10.02"/>
			<rect x="222.61" y="259.94" class="st2" width="9.13" height="10.02"/>
			<rect x="204.35" y="259.94" class="st2" width="9.13" height="10.02"/>
			<rect x="186.07" y="259.94" class="st2" width="9.13" height="10.02"/>
			<rect x="240.88" y="276.75" class="st2" width="9.13" height="10.02"/>
			<rect x="222.61" y="276.75" class="st2" width="9.13" height="10.02"/>
			<rect x="204.35" y="276.75" class="st2" width="9.13" height="10.02"/>
			<rect x="186.07" y="276.75" class="st2" width="9.13" height="10.02"/>
			<rect x="240.88" y="293.55" class="st2" width="9.13" height="10.02"/>
			<rect x="222.61" y="293.55" class="st2" width="9.13" height="10.02"/>
			<rect x="204.35" y="293.55" class="st2" width="9.13" height="10.02"/>
			<rect x="186.07" y="293.55" class="st2" width="9.13" height="10.02"/>
		</g>
		<g>
			<rect x="63.68" y="160.86" class="st2" width="54.99" height="158.39"/>
			<rect x="94.41" y="168.67" class="st4" width="16.12" height="10.02"/>
			<rect x="94.41" y="185.48" class="st4" width="16.12" height="10.02"/>
			<rect x="94.41" y="202.27" class="st4" width="16.12" height="10.02"/>
			<rect x="94.41" y="219.08" class="st4" width="16.12" height="10.02"/>
			<rect x="94.41" y="235.87" class="st4" width="16.12" height="10.02"/>
			<rect x="94.41" y="252.67" class="st4" width="16.12" height="10.02"/>
			<rect x="94.41" y="269.47" class="st4" width="16.12" height="10.02"/>
			<rect x="94.41" y="286.27" class="st4" width="16.12" height="10.02"/>
			<rect x="72.85" y="168.67" class="st4" width="16.12" height="10.02"/>
			<rect x="72.85" y="185.48" class="st4" width="16.12" height="10.02"/>
			<rect x="72.85" y="202.27" class="st4" width="16.12" height="10.02"/>
			<rect x="72.85" y="219.08" class="st4" width="16.12" height="10.02"/>
			<rect x="72.85" y="235.87" class="st4" width="16.12" height="10.02"/>
			<rect x="72.85" y="252.67" class="st4" width="16.12" height="10.02"/>
			<rect x="72.85" y="269.47" class="st4" width="16.12" height="10.02"/>
			<rect x="72.85" y="286.27" class="st4" width="16.12" height="10.02"/>
		</g>
		<g>
			<path class="st0" d="M126.22,317.02V147.81h37.01V317L126.22,317.02z"/>
			<rect x="155.93" y="154.66" class="st4" width="4.49" height="11.52"/>
			<rect x="146.96" y="154.66" class="st4" width="4.49" height="11.52"/>
			<rect x="138" y="154.66" class="st4" width="4.49" height="11.52"/>
			<rect x="129.02" y="154.66" class="st4" width="4.49" height="11.52"/>
			<rect x="155.93" y="173.99" class="st4" width="4.49" height="11.52"/>
			<rect x="146.96" y="173.99" class="st4" width="4.49" height="11.52"/>
			<rect x="138" y="173.99" class="st4" width="4.49" height="11.52"/>
			<rect x="129.02" y="173.99" class="st4" width="4.49" height="11.52"/>
			<rect x="155.93" y="193.31" class="st4" width="4.49" height="11.52"/>
			<rect x="146.96" y="193.31" class="st4" width="4.49" height="11.52"/>
			<rect x="138" y="193.31" class="st4" width="4.49" height="11.52"/>
			<rect x="129.02" y="193.31" class="st4" width="4.49" height="11.52"/>
			<rect x="155.93" y="212.64" class="st4" width="4.49" height="11.52"/>
			<rect x="146.96" y="212.64" class="st4" width="4.49" height="11.52"/>
			<rect x="138" y="212.64" class="st4" width="4.49" height="11.52"/>
			<rect x="129.02" y="212.64" class="st4" width="4.49" height="11.52"/>
			<rect x="155.93" y="231.99" class="st4" width="4.49" height="11.52"/>
			<rect x="146.96" y="231.99" class="st4" width="4.49" height="11.52"/>
			<rect x="138" y="231.99" class="st4" width="4.49" height="11.52"/>
			<rect x="129.02" y="231.99" class="st4" width="4.49" height="11.52"/>
			<rect x="155.93" y="251.32" class="st4" width="4.49" height="11.52"/>
			<rect x="146.96" y="251.32" class="st4" width="4.49" height="11.52"/>
			<rect x="138" y="251.32" class="st4" width="4.49" height="11.52"/>
			<rect x="129.02" y="251.32" class="st4" width="4.49" height="11.52"/>
			<rect x="155.93" y="270.64" class="st4" width="4.49" height="11.52"/>
			<rect x="146.96" y="270.64" class="st4" width="4.49" height="11.52"/>
			<rect x="138" y="270.64" class="st4" width="4.49" height="11.52"/>
			<rect x="129.02" y="270.64" class="st4" width="4.49" height="11.52"/>
			<rect x="155.93" y="289.97" class="st4" width="4.49" height="11.52"/>
			<rect x="146.96" y="289.97" class="st4" width="4.49" height="11.52"/>
			<rect x="138" y="289.97" class="st4" width="4.49" height="11.52"/>
			<rect x="129.02" y="289.97" class="st4" width="4.49" height="11.52"/>
		</g>
	</g>
</g>
<g id="Background_simple" class="st5">
	<g class="st6">
		<path class="st7" d="M502.12,327.33c36-3.27,70.71-10.23,101.49-21.15c36.28-12.87,73.36-32.92,62.41-59.14
			c-20.22-48.41-117.19-49.29-97.83-81.84c21.93-36.87,7.22-80.12-91.19-92.15C290.08,50.2,64.11,183.87,127.58,257.31
			C167.09,303.04,310.99,344.69,502.12,327.33z"/>
		<path class="st8" d="M502.12,327.33c36-3.27,70.71-10.23,101.49-21.15c36.28-12.87,73.36-32.92,62.41-59.14
			c-20.22-48.41-117.19-49.29-97.83-81.84c21.93-36.87,7.22-80.12-91.19-92.15C290.08,50.2,64.11,183.87,127.58,257.31
			C167.09,303.04,310.99,344.69,502.12,327.33z"/>
	</g>
</g>
<g id="Shadow">
	<g>
		<g>
			<path class="st3" d="M703.71,444.17c0,3.39-147.87,6.13-330.27,6.13s-330.27-2.75-330.27-6.13c0-3.39,147.87-6.13,330.27-6.13
				S703.71,440.78,703.71,444.17z"/>
		</g>
	</g>
</g>
<g id="Bus">
	<g>
		<g>
			
				<rect x="380.42" y="356.2" transform="matrix(-1 -1.224647e-16 1.224647e-16 -1 840.5094 775.8071)" class="st7" width="79.66" height="63.4"/>
			
				<rect x="380.42" y="356.2" transform="matrix(-1 -1.224647e-16 1.224647e-16 -1 840.5094 775.8071)" class="st9" width="79.66" height="63.4"/>
		</g>
		<g>
			<ellipse class="st10" cx="428.15" cy="408.55" rx="22.77" ry="35.62"/>
			<path class="st10" d="M425.11,408.55c0,12.29-3.02,29.22,3.04,35.62c0,0,15.01,0,19.73,0c12.57,0,22.77-15.95,22.77-35.62
				c0-19.67-10.19-35.62-22.77-35.62c-5.41,0-19.09-0.65-19.73,0C422.29,378.85,425.11,397.34,425.11,408.55z"/>
			<ellipse class="st11" cx="426.57" cy="407.46" rx="11.61" ry="18.16"/>
		</g>
		<g>
			
				<rect x="118.92" y="356.2" transform="matrix(-1 -1.224647e-16 1.224647e-16 -1 317.4982 775.8071)" class="st7" width="79.66" height="63.4"/>
			
				<rect x="118.92" y="356.2" transform="matrix(-1 -1.224647e-16 1.224647e-16 -1 317.4982 775.8071)" class="st9" width="79.66" height="63.4"/>
		</g>
		<g>
			<ellipse class="st10" cx="166.64" cy="408.55" rx="22.77" ry="35.62"/>
			<path class="st10" d="M163.61,408.55c0,12.29-3.02,29.22,3.04,35.62c0,0,15.01,0,19.73,0c12.57,0,22.77-15.95,22.77-35.62
				c0-19.67-10.19-35.62-22.77-35.62c-5.41,0-19.09-0.65-19.73,0C160.79,378.85,163.61,397.34,163.61,408.55z"/>
			<ellipse class="st11" cx="165.06" cy="407.46" rx="11.61" ry="18.16"/>
		</g>
		<g>
			<ellipse class="st10" cx="270.77" cy="408.55" rx="22.77" ry="35.62"/>
			<path class="st10" d="M267.73,408.55c0,12.29-3.02,29.22,3.04,35.62c0,0,15.01,0,19.73,0c12.57,0,22.77-15.95,22.77-35.62
				c0-19.67-10.19-35.62-22.77-35.62c-5.41,0-19.09-0.65-19.73,0C264.91,378.85,267.73,397.34,267.73,408.55z"/>
			<ellipse class="st11" cx="269.19" cy="407.46" rx="11.61" ry="18.16"/>
		</g>
		<path class="st12" d="M290.5,372.93c-5.41,0-19.09-0.65-19.73,0c-12.57,0-22.77,15.95-22.77,35.62
			c0,19.67,10.19,35.62,22.77,35.62c0,0,15.01,0,19.73,0c12.57,0,22.77-15.95,22.77-35.62C313.27,388.88,303.07,372.93,290.5,372.93
			z"/>
		<g>
			<ellipse class="st10" cx="567.99" cy="408.55" rx="22.77" ry="35.62"/>
			<path class="st10" d="M564.95,408.55c0,12.29-3.02,29.22,3.04,35.62c0,0,15.01,0,19.73,0c12.57,0,22.77-15.95,22.77-35.62
				c0-19.67-10.19-35.62-22.77-35.62c-5.41,0-19.09-0.65-19.73,0C562.13,378.85,564.95,397.34,564.95,408.55z"/>
			<ellipse class="st11" cx="566.4" cy="407.46" rx="11.61" ry="18.16"/>
		</g>
		<path class="st12" d="M587.88,372.93c-5.41,0-19.09-0.65-19.73,0c-12.57,0-22.77,15.95-22.77,35.62
			c0,19.67,10.19,35.62,22.77,35.62c0,0,15.01,0,19.73,0c12.57,0,22.77-15.95,22.77-35.62
			C610.64,388.88,600.45,372.93,587.88,372.93z"/>
		<path class="st7" d="M64.37,214.23l613.94,0.53c11.15,0.01,18.36,1.3,20.56,12.28c7.54,37.71,26.24,126.65,20.93,163.99
			l-1.49,7.27c-1.15,12.08-11.24,21.3-23.32,21.3H452.92c1.45-4.83,2.27-10.17,2.27-15.78c0-21.73-12.1-39.35-27.04-39.35
			c-14.93,0-27.04,17.62-27.04,39.35c0,5.61,0.81,10.95,2.27,15.78H188.62c1.45-4.83,2.27-10.17,2.27-15.78
			c0-21.73-12.1-39.35-27.04-39.35c-14.93,0-27.04,17.62-27.04,39.35c0,5.61,0.81,10.95,2.27,15.78H64.35
			c-12.94,0-23.43-10.54-23.43-23.53V228.21C40.92,215.2,51.42,214.22,64.37,214.23z"/>
		<path class="st13" d="M40.92,376.75h11.31v30.42h-8.54c0,0-2.77-4.6-2.77-10.27V376.75z"/>
		<path class="st7" d="M586.64,214.68l-11.52-17.35c-1.12-1.69-3.02-2.71-5.06-2.71H205.19c-2.42,0-4.64,1.34-5.77,3.48l-8.53,16.14
			L586.64,214.68z"/>
		<path class="st14" d="M369.58,401.28h8.69c1.68,0,3.05-1.36,3.05-3.05v0c0-1.68-1.36-3.05-3.05-3.05h-8.69
			c-1.68,0-3.05,1.36-3.05,3.05v0C366.53,399.92,367.89,401.28,369.58,401.28z"/>
		<path class="st14" d="M215.74,401.23h8.69c1.68,0,3.05-1.36,3.05-3.05l0,0c0-1.68-1.36-3.05-3.05-3.05h-8.69
			c-1.68,0-3.05,1.36-3.05,3.05l0,0C212.69,399.86,214.06,401.23,215.74,401.23z"/>
		<path class="st14" d="M66.64,401.28h8.69c1.68,0,3.05-1.36,3.05-3.05v0c0-1.68-1.36-3.05-3.05-3.05h-8.69
			c-1.68,0-3.05,1.36-3.05,3.05v0C63.59,399.92,64.96,401.28,66.64,401.28z"/>
		<rect x="189.41" y="406.67" class="st10" width="211.81" height="1"/>
		<rect x="43.69" y="406.67" class="st10" width="93.82" height="1"/>
		<rect x="120.12" y="344.45" class="st10" width="1" height="63"/>
		<rect x="58.5" y="316.29" class="st10" width="1" height="90.88"/>
		<rect x="202.12" y="345.97" class="st10" width="1" height="60.27"/>
		<rect x="388.49" y="347.25" class="st10" width="1" height="59.92"/>
		
			<rect x="209.14" y="353.33" transform="matrix(-1 -1.224647e-16 1.224647e-16 -1 591.8446 742.6261)" class="st15" width="173.57" height="35.97"/>
		<path class="st11" d="M466.76,194.62h103.48c2.03,0,4,1.39,5.12,3.09l11.27,16.98l-131.96-0.43L466.76,194.62z"/>
		<g>
			
				<rect x="465.23" y="224.09" transform="matrix(-1 -1.224647e-16 1.224647e-16 -1 991.6861 631.5521)" class="st10" width="61.23" height="183.37"/>
			
				<rect x="469.05" y="236.92" transform="matrix(-1 -1.224647e-16 1.224647e-16 -1 991.6269 610.4276)" class="st11" width="53.53" height="136.59"/>
			<path class="st11" d="M469.05,241.45l53.53,23.88v39.89c-1.25,1.25-53.53-26.75-53.53-26.75V241.45z"/>
			<polygon class="st11" points="469.05,287.43 522.58,313.14 522.61,322.3 469.08,295.55 			"/>
			<path class="st14" d="M504.43,401.23h8.69c1.68,0,3.05-1.36,3.05-3.05l0,0c0-1.68-1.36-3.05-3.05-3.05h-8.69
				c-1.68,0-3.05,1.36-3.05,3.05l0,0C501.38,399.86,502.75,401.23,504.43,401.23z"/>
			
				<rect x="493.53" y="235.41" transform="matrix(-1 -1.224647e-16 1.224647e-16 -1 991.1337 610.4275)" class="st10" width="4.07" height="139.61"/>
		</g>
		<path class="st15" d="M466.76,194.62l-12.08,19.63H190.89l8.27-15.87c1.21-2.32,3.6-3.77,6.21-3.77"/>
		<polygon class="st15" points="586.64,214.68 191.08,214.64 193.23,210.36 583.75,210.36 		"/>
		<g>
			
				<rect x="435.83" y="204.49" transform="matrix(0.5416 -0.8407 0.8407 0.5416 29.7228 463.9902)" class="st10" width="8.9" height="0.5"/>
			
				<rect x="432.19" y="204.49" transform="matrix(0.5416 -0.8407 0.8407 0.5416 28.0549 460.9312)" class="st10" width="8.9" height="0.5"/>
			
				<rect x="428.55" y="204.49" transform="matrix(0.5416 -0.8407 0.8407 0.5416 26.385 457.869)" class="st10" width="8.9" height="0.5"/>
			
				<rect x="424.9" y="204.49" transform="matrix(0.5416 -0.8407 0.8407 0.5416 24.715 454.8068)" class="st10" width="8.9" height="0.5"/>
			
				<rect x="421.26" y="204.49" transform="matrix(0.5416 -0.8407 0.8407 0.5416 23.0451 451.7446)" class="st10" width="8.9" height="0.5"/>
		</g>
		<g>
			
				<rect x="345.41" y="204.4" transform="matrix(0.5408 -0.8412 0.8412 0.5408 -11.4781 388.2716)" class="st10" width="8.9" height="0.5"/>
			
				<rect x="341.77" y="204.4" transform="matrix(0.5408 -0.8412 0.8412 0.5408 -13.1519 385.2054)" class="st10" width="8.9" height="0.5"/>
			
				<rect x="338.13" y="204.4" transform="matrix(0.5408 -0.8412 0.8412 0.5408 -14.8246 382.1414)" class="st10" width="8.9" height="0.5"/>
			
				<rect x="334.49" y="204.4" transform="matrix(0.5408 -0.8412 0.8412 0.5408 -16.4973 379.0775)" class="st10" width="8.9" height="0.5"/>
			
				<rect x="330.84" y="204.4" transform="matrix(0.5408 -0.8412 0.8412 0.5408 -18.17 376.0135)" class="st10" width="8.9" height="0.5"/>
		</g>
		<g>
			
				<rect x="255" y="204.49" transform="matrix(0.5406 -0.8412 0.8412 0.5406 -53.0617 312.3098)" class="st10" width="8.9" height="0.5"/>
			
				<rect x="251.35" y="204.49" transform="matrix(0.5406 -0.8412 0.8412 0.5406 -54.7351 309.2452)" class="st10" width="8.9" height="0.5"/>
			
				<rect x="247.71" y="204.49" transform="matrix(0.5406 -0.8412 0.8412 0.5406 -56.4083 306.1809)" class="st10" width="8.9" height="0.5"/>
			
				<rect x="244.07" y="204.49" transform="matrix(0.5406 -0.8412 0.8412 0.5406 -58.0815 303.1166)" class="st10" width="8.9" height="0.5"/>
			
				<rect x="240.43" y="204.49" transform="matrix(0.5406 -0.8412 0.8412 0.5406 -59.7548 300.0523)" class="st10" width="8.9" height="0.5"/>
		</g>
		<g>
			<polygon class="st10" points="454.87,346.7 120.54,346.7 99.11,316.92 48.37,316.13 48.37,224.09 454.87,224.09 			"/>
			
				<rect x="392.32" y="235.56" transform="matrix(-1 -1.224647e-16 1.224647e-16 -1 840.5094 568.1419)" class="st11" width="55.88" height="97.01"/>
			<path class="st11" d="M392.4,238.09l55.7,23.88v39.89c-1.3,1.25-55.7-26.75-55.7-26.75V238.09z"/>
			<polygon class="st11" points="392.39,284.07 448.09,309.78 448.12,318.94 392.42,292.19 			"/>
			<polygon class="st11" points="126.62,332.42 198.58,332.42 198.58,235.41 108.58,235.41 108,308.43 			"/>
			
				<rect x="211.38" y="235.41" transform="matrix(-1 -1.224647e-16 1.224647e-16 -1 592.2168 567.8271)" class="st11" width="169.45" height="97.01"/>
			
				<rect x="54.38" y="235.41" transform="matrix(-1 -1.224647e-16 1.224647e-16 -1 150.8199 540.5415)" class="st11" width="42.05" height="69.73"/>
			<polygon class="st11" points="380.83,281.02 268.82,235.41 211.38,235.41 211.38,253.72 380.83,322.3 			"/>
			<polyline class="st11" points="198.58,293.19 108.39,258.89 108.51,243.95 198.58,278.47 198.58,289.4 			"/>
			<polygon class="st11" points="108.51,264.91 198.58,299.43 198.58,305.13 108.39,270.27 			"/>
			
				<rect x="51.58" y="249.56" transform="matrix(-1 -1.224647e-16 1.224647e-16 -1 501.8556 502.8449)" class="st10" width="398.69" height="3.72"/>
		</g>
		<g>
			<path class="st11" d="M698.87,227.04c7.54,37.71,26.24,126.65,20.93,163.99l-1.49,7.27c-1.15,12.08-11.24,21.3-23.32,21.3H541.79
				l-10.74-204.97l147.26,0.12C689.46,214.77,696.68,216.06,698.87,227.04z"/>
			<path class="st16" d="M715.65,375.3c0,0-2.05,13.58-12.32,15c-10.27,1.42-36.48,0.32-36.48,0.32l1.97-5.04
				c2.25-5.74,7.73-9.56,13.9-9.67L715.65,375.3z"/>
			<path class="st16" d="M562.77,375.3c0,0,2.05,13.58,12.32,15c10.27,1.42,36.48,0.32,36.48,0.32l-2.22-5.66
				c-2.1-5.37-7.23-8.93-12.99-9.04L562.77,375.3z"/>
			
				<rect x="619.6" y="406.48" transform="matrix(-1 -1.224647e-16 1.224647e-16 -1 1284.293 826.0784)" class="st10" width="45.08" height="13.13"/>
			<path class="st14" d="M698.47,411.93c0,1.94,1.17,3.52,2.62,3.52c1.45,0,2.62-1.58,2.62-3.52s-1.17-3.52-2.62-3.52
				C699.64,408.41,698.47,409.98,698.47,411.93z"/>
			<path class="st14" d="M690.64,411.93c0,1.3,0.78,2.35,1.75,2.35c0.97,0,1.75-1.05,1.75-2.35s-0.78-2.35-1.75-2.35
				C691.42,409.58,690.64,410.63,690.64,411.93z"/>
			<path class="st10" d="M675.38,419.6h-1c0-8.15,6.63-14.77,14.77-14.77h27.38v1h-27.38C681.56,405.83,675.38,412.01,675.38,419.6z
				"/>
			<path class="st14" d="M577.88,411.93c0,1.94-1.17,3.52-2.62,3.52c-1.45,0-2.62-1.58-2.62-3.52s1.17-3.52,2.62-3.52
				C576.71,408.41,577.88,409.98,577.88,411.93z"/>
			<ellipse class="st14" cx="583.96" cy="411.93" rx="1.75" ry="2.35"/>
			<path class="st10" d="M601.97,419.6h-1c0-7.59-6.18-13.77-13.77-13.77h-46.21v-1h46.21C595.34,404.83,601.97,411.46,601.97,419.6
				z"/>
			<path class="st16" d="M694.96,383.1c0,3.6,2.92,6.51,6.51,6.51c3.6,0,6.51-2.92,6.51-6.51c0-3.6-2.92-6.52-6.51-6.52
				C697.87,376.58,694.96,379.5,694.96,383.1z"/>
			<path class="st16" d="M574.13,383.1c0,3.6,2.92,6.51,6.51,6.51c3.6,0,6.51-2.92,6.51-6.51c0-3.6-2.92-6.52-6.51-6.52
				C577.04,376.58,574.13,379.5,574.13,383.1z"/>
			<g>
				<path class="st10" d="M691.55,224.09l20.13,119.24c1,5.95-3.58,11.38-9.62,11.38H572.22c-7.65,0-14.12-5.68-15.11-13.26
					l-15.32-117.36H691.55z"/>
				<polygon class="st11" points="707.99,332.42 693.08,243.55 545.92,243.55 558.34,332.86 				"/>
				<polygon class="st11" points="598.74,243.55 700.1,285.4 704.79,313.39 545.92,243.55 				"/>
				<polygon class="st11" points="547.37,253.96 706.73,323.7 707.99,332.42 548.7,263.58 				"/>
				<polygon class="st9" points="547.23,240.22 692.02,240.22 689.3,227.91 545.92,227.91 				"/>
				
					<rect x="596.85" y="232.65" transform="matrix(-1 -1.224647e-16 1.224647e-16 -1 1266.4098 469.1708)" class="st14" width="72.7" height="3.88"/>
				
					<rect x="588.06" y="230.69" transform="matrix(-1 -1.224647e-16 1.224647e-16 -1 1181.0723 469.1708)" class="st14" width="4.96" height="7.79"/>
				
					<rect x="582.24" y="230.69" transform="matrix(-1 -1.224647e-16 1.224647e-16 -1 1169.2333 469.1708)" class="st14" width="4.75" height="7.79"/>
			</g>
			<path class="st10" d="M672.3,367.24c-53.39,0-132.09-0.02-133.28-0.02v-1c1.79,0,178.98,0.04,181.53,0l0.01,1
				C719.71,367.23,699.22,367.24,672.3,367.24z"/>
		</g>
		<g>
			<g>
				<path class="st7" d="M722.8,292.3L722.8,292.3c5.14,0,9.3-4.16,9.3-9.3v-32.74c0-5.14-4.16-9.3-9.3-9.3l0,0
					c-5.14,0-9.3,4.16-9.3,9.3V283C713.49,288.14,717.66,292.3,722.8,292.3z"/>
				<path class="st7" d="M725.02,244.13c0,0-2.42-8.76-8.61-9.66c-6.19-0.91-17.21,0-17.21,0v4.63c0,0,12.68-0.5,14.8,0
					c2.11,0.5,4.53,6.99,4.53,6.99L725.02,244.13z"/>
			</g>
			<g class="st12">
				<path class="st14" d="M722.8,292.3L722.8,292.3c5.14,0,9.3-4.16,9.3-9.3v-32.74c0-5.14-4.16-9.3-9.3-9.3l0,0
					c-5.14,0-9.3,4.16-9.3,9.3V283C713.49,288.14,717.66,292.3,722.8,292.3z"/>
				<path class="st14" d="M725.02,244.13c0,0-2.42-8.76-8.61-9.66c-6.19-0.91-17.21,0-17.21,0v4.63c0,0,12.68-0.5,14.8,0
					c2.11,0.5,4.53,6.99,4.53,6.99L725.02,244.13z"/>
			</g>
		</g>
		<g>
			<g>
				<path class="st7" d="M565.39,295.15L565.39,295.15c5.14,0,9.3-4.16,9.3-9.3v-32.74c0-5.14-4.16-9.3-9.3-9.3l0,0
					c-5.14,0-9.3,4.16-9.3,9.3v32.74C556.09,290.99,560.25,295.15,565.39,295.15z"/>
				<path class="st7" d="M567.61,246.98c0,0-2.42-8.76-8.61-9.66c-6.19-0.91-17.21,0-17.21,0v4.63c0,0,12.68-0.5,14.8,0
					c2.11,0.5,4.53,6.99,4.53,6.99L567.61,246.98z"/>
			</g>
			<g class="st12">
				<path class="st14" d="M565.39,295.15L565.39,295.15c5.14,0,9.3-4.16,9.3-9.3v-32.74c0-5.14-4.16-9.3-9.3-9.3l0,0
					c-5.14,0-9.3,4.16-9.3,9.3v32.74C556.09,290.99,560.25,295.15,565.39,295.15z"/>
				<path class="st14" d="M567.61,246.98c0,0-2.42-8.76-8.61-9.66c-6.19-0.91-17.21,0-17.21,0v4.63c0,0,12.68-0.5,14.8,0
					c2.11,0.5,4.53,6.99,4.53,6.99L567.61,246.98z"/>
			</g>
		</g>
	</g>
</g>
</svg>
