<?xml version="1.0" encoding="utf-8"?>
<!-- Generator: Adobe Illustrator 27.3.1, SVG Export Plug-In . SVG Version: 6.00 Build 0)  -->
<svg version="1.1" id="Слой_1" xmlns="http://www.w3.org/2000/svg" xmlns:xlink="http://www.w3.org/1999/xlink" x="0px" y="0px"
	 viewBox="0 0 87.83 89.63" style="enable-background:new 0 0 87.83 89.63;" xml:space="preserve">
<style type="text/css">
	.st0{fill:none;stroke:#047CBF;stroke-width:3;stroke-linecap:round;stroke-miterlimit:10;}
	.st1{fill:none;stroke:#000000;stroke-width:3;stroke-miterlimit:10;}
</style>
<circle class="st0" cx="42.65" cy="38.85" r="10.13"/>
<path class="st1" d="M42.65,58.85"/>
<path class="st1" d="M42.65,58.85"/>
<path class="st1" d="M17.92,55.84"/>
<path class="st0" d="M17.92,55.84c-3.33-4.83-5.27-10.68-5.27-16.99c0-16.57,13.43-30,30-30s30,13.43,30,30
	c0,3.11-0.47,6.1-1.35,8.92c0,0-1.2,3.87-3.77,7.85c-3.56,5.51-12.56,15.32-24.88,26.46"/>
<path class="st0" d="M28.99,53.46c-3.9-3.65-6.34-8.84-6.34-14.6c0-11.05,8.95-20,20-20s20,8.95,20,20c0,2.06-0.31,4.05-0.89,5.92
	c-1.26,4.06-3.55,6.66-4.97,8.22c-3.93,4.34-11.46,12.01-21.66,21.42"/>
</svg>
